<svg xmlns="http://www.w3.org/2000/svg" xmlns:xlink="http://www.w3.org/1999/xlink" viewBox="0 0 280.44 218.4"><defs><style>.cls-1{opacity:0.79;}.cls-2{fill:url(#radial-gradient);}.cls-3{fill:url(#radial-gradient-2);}.cls-4{fill:#464c55;}.cls-5,.cls-8{fill:#eaefef;}.cls-5{stroke:#9da7aa;stroke-miterlimit:10;stroke-width:3px;}.cls-6,.cls-9{fill:#fff;}.cls-7{fill:#754c24;opacity:0.72;}.cls-9{opacity:0.32;}</style><radialGradient id="radial-gradient" cx="128" cy="201.4" r="87.02" gradientTransform="matrix(-1.32, -0.02, 0, -0.15, 295.91, 234.36)" gradientUnits="userSpaceOnUse"><stop offset="0" stop-color="#b3b3b3"/><stop offset="1" stop-color="#b8b8b8" stop-opacity="0"/></radialGradient><radialGradient id="radial-gradient-2" cx="128.32" cy="199.24" fx="105.63157829412013" r="59.54" gradientTransform="translate(256.43 216.74) rotate(-179.31) scale(1 0.08)" gradientUnits="userSpaceOnUse"><stop offset="0" stop-color="#b3b3b3"/><stop offset="1" stop-color="#fff" stop-opacity="0"/></radialGradient></defs><title>coming-soon</title><g id="Layer_2" data-name="Layer 2"><g id="Layer_1-2" data-name="Layer 1"><g class="cls-1"><ellipse class="cls-2" cx="129" cy="200.9" rx="129" ry="17.5"/></g><g class="cls-1"><ellipse class="cls-3" cx="129" cy="198.9" rx="67.05" ry="6.5"/></g><rect class="cls-4" x="77.5" y="16.9" width="105" height="32"/><path class="cls-4" d="M80,18.4l97,1,3-8S40-9.6,57,5.4C66.15,13.48,80,18.4,80,18.4Z"/><path class="cls-5" d="M85,49.4c-5,11-57,37-59,85s39,64,77,64h52.93c38,0,79-16,77-64s-54-74-59-85"/><path class="cls-6" d="M89.72,57.32c-4.47,9.83-50.94,33.07-52.73,76s34.86,57.2,68.82,57.2h47.31c34,0,70.61-14.3,68.82-57.2s-48.26-66.14-52.73-76"/><path class="cls-4" d="M182,16.4v24l53-28s-11-12-18-11S182,16.4,182,16.4Z"/><path class="cls-4" d="M235,12.4s16,88,37,95c0,0,15,12,5,11s-29-1-49-51-13-58-13-58Z"/><ellipse class="cls-7" cx="106" cy="183.9" rx="24" ry="3.5"/><ellipse class="cls-7" cx="159.5" cy="183.4" rx="12.5" ry="2"/><ellipse class="cls-7" cx="138.5" cy="186.9" rx="6.5" ry="1.5"/><path class="cls-8" d="M92,65.4c-17,17-31.66,37.78-39,52-16,31,14,55,14,55l7,3s-25-47,58-113Z"/><path class="cls-9" d="M73,7.4l14,8v24h23v-21S101,2.4,73,7.4Z"/></g></g></svg>