<svg xmlns="http://www.w3.org/2000/svg" viewBox="0 0 175.99 169.55"><defs><style>.cls-1,.cls-3{fill:#fff;}.cls-2,.cls-4{fill:none;}.cls-2{stroke:#9da7aa;}.cls-2,.cls-3,.cls-4,.cls-5{stroke-miterlimit:10;}.cls-2,.cls-3{stroke-width:0.65px;}.cls-3{stroke:#b3b3b3;}.cls-4{stroke:#e8ecef;stroke-linecap:round;stroke-width:5px;}.cls-5{stroke:#e6e6e6;stroke-width:0.53px;opacity:0.06;fill:url(#linear-gradient);}</style><linearGradient id="linear-gradient" x1="25.34" x2="61.45" y1="64.83" y2="64.83" gradientUnits="userSpaceOnUse"><stop offset="0"/><stop offset="1" stop-opacity="0"/></linearGradient></defs><g id="Layer_2" data-name="Layer 2"><g id="Layer_1-2" data-name="Layer 1"><path d="M152.35 31.68s14.24 83.1-15.55 127c0 0-83.39 2.83-102.45-4 0 0 24-85.5 20.08-142.08 0 0 71.5 2.65 97.92 19.08z" class="cls-1"/><path d="M152.35 31.68s14.24 83.1-15.55 127c0 0-83.39 2.83-102.45-4 0 0 24-85.5 20.08-142.08 0 0 71.5 2.65 97.92 19.08z" class="cls-2"/><path d="M.35 58.68s36.27 89.46 86 108c0 0 77.61-63.89 89.17-80.51 0 0-67.16-37.34-96.7-85.75C78.82.41 12.37 30 .35 58.68z" class="cls-1"/><path d="M.35 58.68s36.27 89.46 86 108c0 0 77.61-63.89 89.17-80.51 0 0-67.16-37.34-96.7-85.75C78.82.41 12.37 30 .35 58.68z" class="cls-2"/><path d="M41.35 59.68s-20 9.16-17 22c6.32 26.83 19.13 63.15 45.5 87.5 0 0 87-34 104-45 0 0-48-60-57-116 0 0-50.83 14-81.39 31.2-6.8 3.81 1.89 9.3 5.89 20.3z" class="cls-1"/><path d="M41.35 59.68s-20 9.16-17 22c6.32 26.83 19.13 63.15 45.5 87.5 0 0 87-34 104-45 0 0-48-60-57-116 0 0-50.83 14-81.39 31.2-6.8 3.81 1.89 9.3 5.89 20.3z" class="cls-2"/><path d="M24.35 81.68s-6-27 8-40" class="cls-3"/><path d="M43.35 54.68c2-2 34-18 48-21m-52 37c-1 0 43-22 57-25m-53 37c-1 0 23-11 36-16m-28 33c-1 0 43-21 57-24m-51 35c-1 0 30-16 44-19m-32 37c-1 0 43-21 57-24m-52 34c-1 0 33-16 47-19m-42 28c-1 0 9-5 21-9" class="cls-4"/><path d="M35.35 42.68s28 14 26 16-31 32-31 29c0-1.67-4.42-5.22-5-13-.46-6.15 13.67-12.47 15-16 1.49-4-9.12-14-8-16s3 0 3 0z" class="cls-5"/></g></g></svg>