<svg xmlns="http://www.w3.org/2000/svg" width="37" height="38"><g fill="#C8D1D8" transform="translate(0 .663)"><path d="M23.3545 22.5227l-.458-.2818c-3.8396-1.7616-7.2565 0-7.2565 0l-.493.4224v.775l.493-.141s3.417-1.7612 7.2565 0l.599.2818-.141-1.0567z"/><circle cx="8.991" cy="22.245" r="3.311"/><path d="M25.8557 16.7385c.951-.5636 2.0783-.8807 3.2408-.8807 1.6908 0 3.2055.634 4.368 1.691.0352 0 .1057.035.141.035 0 0 8.1018-12.4698-2.2898-7.4678 0 0-11.6245-16.098-23.5308-7.6792 0 0 1.8314.9863 2.4655 1.867 0 0-8.7712.493-10.2507 4.826 0 0 2.5714-.282 2.5362.3874 0 0-3.3817.4932.775 9.1587 1.1624-1.7616 3.1702-2.924 5.4247-2.924 1.9725 0 3.734.8806 4.9315 2.2544 1.6204-.2818 3.5578-.8806 4.826-2.043.0352 0 9.6166-2.0432 7.362.775z"/><path d="M9.0412 15.778c-3.593 0-6.5167 2.9237-6.5167 6.5168 0 3.593 2.9237 6.5167 6.5167 6.5167s6.5168-2.9237 6.5168-6.5167-2.9237-6.5168-6.5168-6.5168zm-.1056 11.6597c-2.818 0-5.143-2.2896-5.143-5.143 0-2.818 2.2897-5.143 5.143-5.143 2.818 0 5.143 2.2898 5.143 5.143 0 2.8534-2.2897 5.143-5.143 5.143zM29.237 15.778c-3.593 0-6.5167 2.9237-6.5167 6.5168 0 3.593 2.9238 6.5167 6.5168 6.5167s6.517-2.9237 6.517-6.5167-2.924-6.5168-6.517-6.5168zm-.1115 11.5482c-2.818 0-5.143-2.2897-5.143-5.143 0-2.818 2.2897-5.143 5.143-5.143s5.143 2.2897 5.143 5.143c-.0352 2.8533-2.325 5.143-5.143 5.143z"/><circle cx="29.187" cy="22.245" r="3.311"/><path d="M25.2978 27.7693l6.1293.493s4.5796 6.9748-13.0333 8.9827l-4.509-.7045c0-.0352 14.196-3.417 11.4133-8.7712z"/></g></svg>