<svg xmlns="http://www.w3.org/2000/svg" width="113" height="33" viewBox="0 0 113 33">
  <g fill="#9FACB5">
    <path d="M20.7140332,18.9762692 L20.3078721,18.7263239 C16.9023667,17.1641655 13.8717794,18.7263239 13.8717794,18.7263239 L13.434375,19.1012419 L13.434375,19.7885916 L13.8717794,19.6636189 C13.8717794,19.6636189 16.9023667,18.1014605 20.3078721,19.6636189 L20.8390059,19.9135643 L20.7140332,18.9762692 Z"/>
    <circle cx="7.975" cy="18.73" r="2.937"/>
    <path d="M22.9324856,14.8460417 C23.7760512,14.346151 24.7758326,14.0649625 25.8068571,14.0649625 C27.3065292,14.0649625 28.6499854,14.6273395 29.68101,15.5646346 C29.7122532,15.5646346 29.7747395,15.5958777 29.8059827,15.5958777 C29.8059827,15.5958777 36.9919114,4.53579613 27.7751767,8.97232604 C27.7751767,8.97232604 17.4649311,-5.30580193 6.90474022,2.16131533 C6.90474022,2.16131533 8.52938498,3.03612404 9.09176201,3.81720325 C9.09176201,3.81720325 1.31221307,4.25460761 0,8.09751733 C0,8.09751733 2.28075129,7.84757198 2.24950813,8.44119218 C2.24950813,8.44119218 -0.749836042,8.87859654 2.93685783,16.564416 C3.96788239,15.0022575 5.74874299,13.971233 7.74830577,13.971233 C9.4979232,13.971233 11.0600816,14.7523122 12.1223493,15.9707958 C13.5595351,15.7208504 15.2779094,15.1897166 16.4026634,14.158692 C16.4339066,14.158692 24.9320484,12.3465882 22.9324856,14.8460417 Z"/>
    <path d="M8.01904866 12.9941406C4.83224548 12.9941406 2.2390625 15.5873236 2.2390625 18.7741268 2.2390625 21.96093 4.83224548 24.5541129 8.01904866 24.5541129 11.2058518 24.5541129 13.7990348 21.96093 13.7990348 18.7741268 13.7990348 15.5873236 11.2058518 12.9941406 8.01904866 12.9941406zM7.92531915 23.3356294C5.42586568 23.3356294 3.36381656 21.3048234 3.36381656 18.7741268 3.36381656 16.2746733 5.39462251 14.2126242 7.92531915 14.2126242 10.4247726 14.2126242 12.4868217 16.2434301 12.4868217 18.7741268 12.4868217 21.3048234 10.4560158 23.3356294 7.92531915 23.3356294zM25.9315487 12.9941406C22.7447455 12.9941406 20.1515625 15.5873236 20.1515625 18.7741268 20.1515625 21.96093 22.7447455 24.5541129 25.9315487 24.5541129 29.1183518 24.5541129 31.7115348 21.96093 31.7115348 18.7741268 31.7115348 15.5873236 29.1183518 12.9941406 25.9315487 12.9941406zM25.8325963 23.2366771C23.3331429 23.2366771 21.2710937 21.2058711 21.2710937 18.6751745 21.2710937 16.175721 23.3018997 14.1136719 25.8325963 14.1136719 28.363293 14.1136719 30.3940989 16.1444778 30.3940989 18.6751745 30.3628558 21.2058711 28.3320498 23.2366771 25.8325963 23.2366771z"/>
    <circle cx="25.887" cy="18.73" r="2.937"/>
    <path d="M22.4376303,23.6296875 L27.8739416,24.0670919 C27.8739416,24.0670919 31.9355535,30.2532392 16.3139693,32.0340998 L12.3148437,31.4092364 C12.3148437,31.3779933 24.9058406,28.3786491 22.4376303,23.6296875 Z"/>
    <g transform="translate(45 7)">
      <path d="M.1310625 15.7930312L.1310625 14.416875 1.57275 14.416875C1.7038125 14.416875 1.80210938 14.3841094 1.86764063 14.2858125 1.93317188 14.2202812 1.93317188 14.0564531 1.93317188 13.8270937L1.93317188 2.06423437C1.93317188 1.834875 1.90040625 1.67104687 1.86764063 1.60551562 1.80210938 1.53998437 1.73657813 1.50721875 1.57275 1.50721875L.1310625 1.50721875.1310625.1310625 5.99610938.1310625 5.99610938 1.50721875 4.55442188 1.50721875C4.42335938 1.50721875 4.3250625 1.53998437 4.25953125 1.60551562 4.194 1.67104687 4.194 1.834875 4.194 2.06423437L4.194 13.8270937C4.194 14.0564531 4.22676563 14.2202812 4.25953125 14.2858125 4.3250625 14.3513437 4.39059375 14.416875 4.55442188 14.416875L5.99610938 14.416875 5.99610938 15.7930312.1310625 15.7930312zM6.88078125 15.7930313L6.88078125 14.416875 8.19140625 14.416875C8.32246875 14.416875 8.388 14.3841094 8.45353125 14.3185781 8.5190625 14.2530469 8.5190625 14.0892188 8.5190625 13.892625L8.5190625 6.35653125C8.5190625 6.09440625 8.48629688 5.93057812 8.45353125 5.86504687 8.388 5.76675 8.32246875 5.73398437 8.19140625 5.73398437L6.88078125 5.73398437 6.88078125 4.35782812 8.15864063 4.35782812C9.14160938 4.35782812 9.99351563 4.29229687 10.7798906 4.12846875L10.7798906 6.81525C11.1403125 5.93057812 11.6973281 5.2425 12.3854063 4.78378125 13.0734844 4.3250625 13.892625 4.09570312 14.8100625 4.09570312 17.2347188 4.09570312 18.4470469 5.43909375 18.4470469 8.15864062L18.4470469 13.892625C18.4470469 14.1219844 18.4798125 14.2530469 18.5125781 14.3185781 18.5781094 14.3841094 18.6436406 14.416875 18.7747031 14.416875L20.0853281 14.416875 20.0853281 15.7930313 14.6134688 15.7930313 14.6134688 14.416875 15.8257969 14.416875C15.9240938 14.416875 16.0223906 14.3841094 16.0879219 14.3185781 16.1534531 14.2530469 16.1534531 14.0892188 16.1534531 13.892625L16.1534531 8.19140625C16.1534531 7.30673437 15.989625 6.65142187 15.6292031 6.22546875 15.2687813 5.79951562 14.7117656 5.60292187 13.9253906 5.60292187 12.9424219 5.60292187 12.1560469 5.99610937 11.5990313 6.81525 11.0420156 7.63439063 10.747125 8.7811875 10.747125 10.2556406L10.747125 13.8598594C10.747125 14.0892188 10.7798906 14.2202813 10.8126563 14.2858125 10.8781875 14.3513438 10.9437188 14.3841094 11.0747813 14.3841094L12.319875 14.3841094 12.319875 15.7602656 6.88078125 15.7602656 6.88078125 15.7930313zM20.6095781 5.70121875L20.6095781 4.456125C20.6095781 4.456125 20.6423438 4.456125 20.6751094 4.456125 20.707875 4.456125 20.7406406 4.456125 20.8061719 4.456125 20.8717031 4.456125 20.9372344 4.456125 21.0027656 4.456125 21.0682969 4.456125 21.1338281 4.456125 21.232125 4.42335938 21.3304219 4.39059375 21.3959531 4.42335938 21.4614844 4.39059375 21.5270156 4.39059375 21.5925469 4.39059375 21.6253125 4.39059375 21.6908437 4.39059375 21.7236094 4.39059375 21.756375 4.39059375 21.7891406 4.39059375 21.7891406 4.39059375 21.7891406 4.39059375 22.1167969 4.35782813 22.3789219 4.25953125 22.54275 4.09570313 22.7065781 3.96464063 22.804875 3.70251563 22.8376406 3.407625L23.0342344 1.34339063 24.6069844 1.34339063 24.6069844 4.3250625 27.0644063 4.3250625 27.0644063 5.70121875 24.5414531 5.70121875 24.5414531 12.6802969C24.5414531 13.3356094 24.6725156 13.7615625 24.9346406 14.0564531 25.1967656 14.3185781 25.5899531 14.4824063 26.1469688 14.4824063 26.4418594 14.4824063 26.8678125 14.416875 27.3592969 14.2530469L27.3592969 15.7275C26.7695156 15.9240938 26.1469688 16.0223906 25.5571875 16.0223906 24.4103906 16.0223906 23.5584844 15.7602656 23.067 15.2687813 22.5755156 14.7772969 22.3133906 13.9253906 22.3133906 12.7785938L22.3133906 5.70121875 20.6095781 5.70121875 20.6095781 5.70121875zM28.2112031 9.99351563C28.2112031 8.2569375 28.7354531 6.81525 29.8167188 5.70121875 30.8979844 4.5871875 32.2741406 4.03017188 33.9779531 4.03017188 35.6817656 4.03017188 36.9923906 4.55442188 37.9425938 5.60292188 38.8927969 6.65142188 39.3842813 8.06034375 39.3842813 9.86245313L39.3842813 10.4194688 30.4720313 10.4194688C30.5047969 11.6973281 30.8324531 12.7130625 31.5205313 13.4994375 32.1758438 14.2858125 33.1260469 14.679 34.338375 14.679 36.17325 14.679 37.3855781 13.7615625 37.9425938 11.9594531L39.31875 12.5492344C39.0238594 13.5977344 38.4340781 14.4496406 37.5821719 15.1049531 36.7302656 15.7602656 35.5834688 16.0551563 34.1745469 16.0551563 32.3069063 16.0551563 30.8652188 15.4981406 29.8167188 14.3841094 28.7354531 13.2700781 28.2112031 11.795625 28.2112031 9.99351563zM30.4392656 9.07607813L37.1234531 9.07607813C37.0906875 6.65142188 36.0094219 5.43909375 33.9779531 5.43909375 32.9294531 5.43909375 32.1103125 5.76675 31.4877656 6.38929688 30.8652188 7.01184375 30.5375625 7.89651563 30.4392656 9.07607813zM40.36725 5.70121875L40.36725 4.3250625 41.6451094 4.3250625C42.6280781 4.3250625 43.51275 4.25953125 44.299125 4.09570313L44.299125 6.78248438C44.5940156 5.83228125 44.9872031 5.14420313 45.5442188 4.71825 46.1012344 4.29229688 46.7237813 4.0629375 47.444625 4.0629375 48.231 4.0629375 48.8535469 4.29229688 49.3122656 4.75101563 49.7709844 5.20973437 50.0003438 5.79951563 50.0003438 6.553125 50.0003438 7.14290625 49.8365156 7.63439062 49.541625 7.9948125 49.2467344 8.35523438 48.8207813 8.55182813 48.3292969 8.55182813 48.0016406 8.55182813 47.70675 8.42076562 47.444625 8.19140625 47.1825 7.96204688 47.0842031 7.66715625 47.0842031 7.3395 47.0842031 7.077375 47.1825 6.81525 47.3463281 6.58589063 47.5101563 6.35653125 47.7722813 6.19270313 48.0671719 6.12717188 48.0016406 5.99610938 47.8705781 5.86504688 47.70675 5.76675 47.5429219 5.66845313 47.3135625 5.60292188 47.0514375 5.60292188 46.1667656 5.60292188 45.5114531 5.99610938 45.0527344 6.78248438 44.5940156 7.56885938 44.3646563 8.650125 44.3646563 10.0262813L44.3646563 13.8598594C44.3646563 14.0892187 44.3974219 14.2202812 44.4301875 14.2858125 44.4957188 14.3513438 44.56125 14.3841094 44.6923125 14.3841094L46.134 14.3841094 46.134 15.7602656 40.4655469 15.7602656 40.4655469 14.416875 41.7761719 14.416875C41.9072344 14.416875 41.9727656 14.3841094 42.0382969 14.3185781 42.1038281 14.2530469 42.1038281 14.0892187 42.1038281 13.892625L42.1038281 6.35653125C42.1038281 6.09440625 42.0710625 5.93057812 42.0382969 5.86504687 41.9727656 5.76675 41.9072344 5.73398437 41.7761719 5.73398437L40.36725 5.73398437 40.36725 5.70121875zM50.6556563 15.7930313L50.6556563 14.416875 51.9662813 14.416875C52.0973438 14.416875 52.162875 14.3841094 52.2284063 14.3185781 52.2939375 14.2530469 52.2939375 14.0892188 52.2939375 13.892625L52.2939375 6.35653125C52.2939375 6.09440625 52.2611719 5.93057812 52.2284063 5.86504687 52.1956406 5.79951562 52.0973438 5.73398437 51.9662813 5.73398437L50.6556563 5.73398437 50.6556563 4.35782812 51.9335156 4.35782812C52.9164844 4.35782812 53.7683906 4.29229687 54.5547656 4.12846875L54.5547656 6.81525C54.9151875 5.93057812 55.4722031 5.2425 56.1602813 4.78378125 56.8483594 4.3250625 57.6675 4.09570312 58.5849375 4.09570312 61.0095938 4.09570312 62.2219219 5.43909375 62.2219219 8.15864062L62.2219219 13.892625C62.2219219 14.1219844 62.2546875 14.2530469 62.2874531 14.3185781 62.3202188 14.3841094 62.4185156 14.416875 62.5495781 14.416875L63.8602031 14.416875 63.8602031 15.7930313 58.3883438 15.7930313 58.3883438 14.416875 59.6006719 14.416875C59.6989688 14.416875 59.7972656 14.3841094 59.8627969 14.3185781 59.9283281 14.2530469 59.9283281 14.0892188 59.9283281 13.892625L59.9283281 8.19140625C59.9283281 7.30673437 59.7645 6.65142187 59.4040781 6.22546875 59.0436563 5.79951562 58.4866406 5.60292187 57.7002656 5.60292187 56.7172969 5.60292187 55.9309219 5.99610937 55.3739063 6.81525 54.8168906 7.63439063 54.522 8.7811875 54.522 10.2556406L54.522 13.8598594C54.522 14.0892188 54.5547656 14.2202813 54.5875313 14.2858125 54.6530625 14.3513438 54.7185938 14.3841094 54.8496563 14.3841094L56.09475 14.3841094 56.09475 15.7602656 50.6556563 15.7602656 50.6556563 15.7930313zM65.4001875 15.6619688C65.1380625 15.3670781 64.9742344 15.0066563 64.9742344 14.5807031 64.9742344 14.15475 65.1052969 13.7943281 65.4001875 13.4994375 65.6623125 13.2045469 66.0227344 13.0734844 66.4814531 13.0734844 66.9401719 13.0734844 67.2678281 13.2045469 67.5627188 13.4994375 67.8576094 13.7943281 67.9886719 14.15475 67.9886719 14.5807031 67.9886719 15.0066563 67.8576094 15.3670781 67.5627188 15.6619688 67.2678281 15.9568594 66.9074063 16.0879219 66.4814531 16.0879219 66.0555 16.0879219 65.6950781 15.9240938 65.4001875 15.6619688z"/>
    </g>
  </g>
</svg>
