<svg xmlns="http://www.w3.org/2000/svg" width="277" height="59" viewBox="0 0 277 59">
  <g fill="none" fill-rule="evenodd" transform="translate(0 .5)">
    <g fill="#30A777" fill-rule="nonzero">
      <path d="M37.0048326,33.6868452 L36.2792411,33.2403274 C30.1954353,30.4495908 24.7814062,33.2403274 24.7814062,33.2403274 L24,33.9101042 L24,35.1380283 L24.7814063,34.9147693 C24.7814063,34.9147693 30.1954353,32.1240327 36.2792411,34.9147693 L37.2280915,35.3612872 L37.0048326,33.6868452 Z"/>
      <circle cx="14.247" cy="33.247" r="5.247"/>
      <path d="M40.9680134,26.5218889 C42.4750112,25.6288532 44.2610826,25.1265206 46.1029687,25.1265206 C48.7820759,25.1265206 51.1821094,26.1311858 53.0239955,27.8056277 C53.0798103,27.8056277 53.1914397,27.8614425 53.2472545,27.8614425 C53.2472545,27.8614425 66.0846429,8.10302728 49.6192969,16.0287192 C49.6192969,16.0287192 31.2004353,-9.47861335 12.3350558,3.86110763 C12.3350558,3.86110763 15.2374219,5.42392013 16.2420871,6.81928844 C16.2420871,6.81928844 2.34421875,7.60069469 0,14.4659067 C0,14.4659067 4.07447545,14.0193889 4.01866071,15.0798688 C4.01866071,15.0798688 -1.33955357,15.861275 5.24658482,29.5916992 C7.08847098,26.8009625 10.2699107,24.9590764 13.8420536,24.9590764 C16.9676786,24.9590764 19.7584152,26.3544447 21.6561161,28.5312192 C24.2235937,28.0847014 27.293404,27.1358509 29.3027344,25.2939648 C29.3585491,25.2939648 44.5401562,22.0567103 40.9680134,26.5218889 Z"/>
      <path d="M14.3257254 23C8.63262277 23 4 27.6326228 4 33.3257254 4 39.0188281 8.63262277 43.6514509 14.3257254 43.6514509 20.0188281 43.6514509 24.6514509 39.0188281 24.6514509 33.3257254 24.6514509 27.6326228 20.0188281 23 14.3257254 23zM14.1582812 41.4746763C9.69310268 41.4746763 6.00933036 37.8467188 6.00933036 33.3257254 6.00933036 28.8605469 9.63728795 25.1767746 14.1582812 25.1767746 18.6234598 25.1767746 22.3072321 28.8047321 22.3072321 33.3257254 22.3072321 37.8467188 18.6792746 41.4746763 14.1582812 41.4746763zM46.3257254 23C40.6326228 23 36 27.6326228 36 33.3257254 36 39.0188281 40.6326228 43.6514509 46.3257254 43.6514509 52.0188281 43.6514509 56.6514509 39.0188281 56.6514509 33.3257254 56.6514509 27.6326228 52.0188281 23 46.3257254 23zM46.1489509 41.2979018C41.6837723 41.2979018 38 37.6699442 38 33.1489509 38 28.6837723 41.6279576 25 46.1489509 25 50.6699442 25 54.2979018 28.6279576 54.2979018 33.1489509 54.2420871 37.6699442 50.6141295 41.2979018 46.1489509 41.2979018z"/>
      <circle cx="46.247" cy="33.247" r="5.247"/>
      <path d="M40.0839732,42 L49.7957366,42.7814063 C49.7957366,42.7814063 57.0516518,53.8327232 29.1442857,57.0141629 L22,55.8978683 C22,55.8420536 44.4933371,50.4838393 40.0839732,42 Z"/>
    </g>
    <g fill="#000" fill-rule="nonzero" transform="translate(75 10)">
      <path d="M.192 23.136L.192 21.12 2.304 21.12C2.496 21.12 2.64 21.072 2.736 20.928 2.832 20.832 2.832 20.592 2.832 20.256L2.832 3.024C2.832 2.688 2.784 2.448 2.736 2.352 2.64 2.256 2.544 2.208 2.304 2.208L.192 2.208.192.192 8.784.192 8.784 2.208 6.672 2.208C6.48 2.208 6.336 2.256 6.24 2.352 6.144 2.448 6.144 2.688 6.144 3.024L6.144 20.256C6.144 20.592 6.192 20.832 6.24 20.928 6.336 21.024 6.432 21.12 6.672 21.12L8.784 21.12 8.784 23.136.192 23.136zM10.08 23.136L10.08 21.12 12 21.12C12.192 21.12 12.288 21.072 12.384 20.976 12.48 20.88 12.48 20.64 12.48 20.352L12.48 9.312C12.48 8.928 12.432 8.688 12.384 8.592 12.288 8.448 12.192 8.4 12 8.4L10.08 8.4 10.08 6.384 11.952 6.384C13.392 6.384 14.64 6.288 15.792 6.048L15.792 9.984C16.32 8.688 17.136 7.68 18.144 7.008 19.152 6.336 20.352 6 21.696 6 25.248 6 27.024 7.968 27.024 11.952L27.024 20.352C27.024 20.688 27.072 20.88 27.12 20.976 27.216 21.072 27.312 21.12 27.504 21.12L29.424 21.12 29.424 23.136 21.408 23.136 21.408 21.12 23.184 21.12C23.328 21.12 23.472 21.072 23.568 20.976 23.664 20.88 23.664 20.64 23.664 20.352L23.664 12C23.664 10.704 23.424 9.744 22.896 9.12 22.368 8.496 21.552 8.208 20.4 8.208 18.96 8.208 17.808 8.784 16.992 9.984 16.176 11.184 15.744 12.864 15.744 15.024L15.744 20.304C15.744 20.64 15.792 20.832 15.84 20.928 15.936 21.024 16.032 21.072 16.224 21.072L18.048 21.072 18.048 23.088 10.08 23.088 10.08 23.136zM30.192 8.352L30.192 6.528C30.192 6.528 30.24 6.528 30.288 6.528 30.336 6.528 30.384 6.528 30.48 6.528 30.576 6.528 30.672 6.528 30.768 6.528 30.864 6.528 30.96 6.528 31.104 6.48 31.248 6.432 31.344 6.48 31.44 6.432 31.536 6.432 31.632 6.432 31.68 6.432 31.776 6.432 31.824 6.432 31.872 6.432 31.92 6.432 31.92 6.432 31.92 6.432 32.4 6.384 32.784 6.24 33.024 6 33.264 5.808 33.408 5.424 33.456 4.992L33.744 1.968 36.048 1.968 36.048 6.336 39.648 6.336 39.648 8.352 35.952 8.352 35.952 18.576C35.952 19.536 36.144 20.16 36.528 20.592 36.912 20.976 37.488 21.216 38.304 21.216 38.736 21.216 39.36 21.12 40.08 20.88L40.08 23.04C39.216 23.328 38.304 23.472 37.44 23.472 35.76 23.472 34.512 23.088 33.792 22.368 33.072 21.648 32.688 20.4 32.688 18.72L32.688 8.352 30.192 8.352 30.192 8.352zM41.328 14.64C41.328 12.096 42.096 9.984 43.68 8.352 45.264 6.72 47.28 5.904 49.776 5.904 52.272 5.904 54.192 6.672 55.584 8.208 56.976 9.744 57.696 11.808 57.696 14.448L57.696 15.264 44.64 15.264C44.688 17.136 45.168 18.624 46.176 19.776 47.136 20.928 48.528 21.504 50.304 21.504 52.992 21.504 54.768 20.16 55.584 17.52L57.6 18.384C57.168 19.92 56.304 21.168 55.056 22.128 53.808 23.088 52.128 23.52 50.064 23.52 47.328 23.52 45.216 22.704 43.68 21.072 42.096 19.44 41.328 17.28 41.328 14.64zM44.592 13.296L54.384 13.296C54.336 9.744 52.752 7.968 49.776 7.968 48.24 7.968 47.04 8.448 46.128 9.36 45.216 10.272 44.736 11.568 44.592 13.296zM59.136 8.352L59.136 6.336 61.008 6.336C62.448 6.336 63.744 6.24 64.896 6L64.896 9.936C65.328 8.544 65.904 7.536 66.72 6.912 67.536 6.288 68.448 5.952 69.504 5.952 70.656 5.952 71.568 6.288 72.24 6.96 72.912 7.632 73.248 8.496 73.248 9.6 73.248 10.464 73.008 11.184 72.576 11.712 72.144 12.24 71.52 12.528 70.8 12.528 70.32 12.528 69.888 12.336 69.504 12 69.12 11.664 68.976 11.232 68.976 10.752 68.976 10.368 69.12 9.984 69.36 9.648 69.6 9.312 69.984 9.072 70.416 8.976 70.32 8.784 70.128 8.592 69.888 8.448 69.648 8.304 69.312 8.208 68.928 8.208 67.632 8.208 66.672 8.784 66 9.936 65.328 11.088 64.992 12.672 64.992 14.688L64.992 20.304C64.992 20.64 65.04 20.832 65.088 20.928 65.184 21.024 65.28 21.072 65.472 21.072L67.584 21.072 67.584 23.088 59.28 23.088 59.28 21.12 61.2 21.12C61.392 21.12 61.488 21.072 61.584 20.976 61.68 20.88 61.68 20.64 61.68 20.352L61.68 9.312C61.68 8.928 61.632 8.688 61.584 8.592 61.488 8.448 61.392 8.4 61.2 8.4L59.136 8.4 59.136 8.352zM74.208 23.136L74.208 21.12 76.128 21.12C76.32 21.12 76.416 21.072 76.512 20.976 76.608 20.88 76.608 20.64 76.608 20.352L76.608 9.312C76.608 8.928 76.56 8.688 76.512 8.592 76.464 8.496 76.32 8.4 76.128 8.4L74.208 8.4 74.208 6.384 76.08 6.384C77.52 6.384 78.768 6.288 79.92 6.048L79.92 9.984C80.448 8.688 81.264 7.68 82.272 7.008 83.28 6.336 84.48 6 85.824 6 89.376 6 91.152 7.968 91.152 11.952L91.152 20.352C91.152 20.688 91.2 20.88 91.248 20.976 91.296 21.072 91.44 21.12 91.632 21.12L93.552 21.12 93.552 23.136 85.536 23.136 85.536 21.12 87.312 21.12C87.456 21.12 87.6 21.072 87.696 20.976 87.792 20.88 87.792 20.64 87.792 20.352L87.792 12C87.792 10.704 87.552 9.744 87.024 9.12 86.496 8.496 85.68 8.208 84.528 8.208 83.088 8.208 81.936 8.784 81.12 9.984 80.304 11.184 79.872 12.864 79.872 15.024L79.872 20.304C79.872 20.64 79.92 20.832 79.968 20.928 80.064 21.024 80.16 21.072 80.352 21.072L82.176 21.072 82.176 23.088 74.208 23.088 74.208 23.136zM95.808 22.944C95.424 22.512 95.184 21.984 95.184 21.36 95.184 20.736 95.376 20.208 95.808 19.776 96.192 19.344 96.72 19.152 97.392 19.152 98.064 19.152 98.544 19.344 98.976 19.776 99.408 20.208 99.6 20.736 99.6 21.36 99.6 21.984 99.408 22.512 98.976 22.944 98.544 23.376 98.016 23.568 97.392 23.568 96.768 23.568 96.24 23.328 95.808 22.944z"/>
    </g>
    <path fill="#323B43" d="M83,51.024 C83,52.0373384 82.6453369,52.8133306 81.936,53.352 C81.2266631,53.8906694 80.3066723,54.16 79.176,54.16 C78.4826632,54.16 77.8266698,54.0773342 77.208,53.912 C76.5893302,53.7466658 76.0986685,53.5253347 75.736,53.248 L75.976,51.04 L77.144,51.152 L77.112,52.448 C77.4640018,52.6293342 77.802665,52.749333 78.128,52.808 C78.453335,52.866667 78.7759984,52.896 79.096,52.896 C79.7573366,52.896 80.3146644,52.7706679 80.768,52.52 C81.2213356,52.2693321 81.448,51.8186699 81.448,51.168 C81.448,50.442663 81.1946692,49.9653345 80.688,49.736 C80.1813308,49.5066655 79.6133365,49.3280006 78.984,49.2 C78.4826642,49.0933328 77.9893358,48.9600008 77.504,48.8 C77.0186642,48.6399992 76.613335,48.3760018 76.288,48.008 C75.962665,47.6399982 75.8,47.1040035 75.8,46.4 C75.8,45.3653282 76.1466632,44.6133357 76.84,44.144 C77.5333368,43.6746643 78.3333288,43.44 79.24,43.44 C79.848003,43.44 80.4506637,43.5279991 81.048,43.704 C81.6453363,43.8800009 82.1093317,44.1066653 82.44,44.384 L82.536,46.512 L81.368,46.624 L81.192,45.168 C80.8826651,44.9973325 80.5680016,44.8800003 80.248,44.816 C79.9279984,44.7519997 79.6240014,44.72 79.336,44.72 C78.7493304,44.72 78.2720018,44.8479987 77.904,45.104 C77.5359982,45.3600013 77.352,45.7386642 77.352,46.24 C77.352,46.8266696 77.5759978,47.223999 78.024,47.432 C78.4720022,47.640001 78.9679973,47.8079994 79.512,47.936 C79.9600022,48.0320005 80.4559973,48.1626658 81,48.328 C81.5440027,48.4933342 82.0133314,48.7786646 82.408,49.184 C82.8026686,49.5893354 83,50.2026626 83,51.024 Z M91.384,50.432 C91.384,51.5306722 91.0453367,52.4266632 90.368,53.12 C89.6906633,53.8133368 88.7973389,54.16 87.688,54.16 C86.5999946,54.16 85.7386698,53.8240034 85.104,53.152 C84.4693302,52.4799966 84.152,51.5946722 84.152,50.496 C84.152,49.4506614 84.455997,48.5546704 85.064,47.808 C85.672003,47.0613296 86.5786606,46.688 87.784,46.688 C88.9893394,46.688 89.8906637,47.058663 90.488,47.8 C91.0853363,48.541337 91.384,49.4186616 91.384,50.432 Z M89.912,50.384 C89.912,49.5946627 89.7173353,48.970669 89.328,48.512 C88.9386647,48.053331 88.4133366,47.824 87.752,47.824 C87.0586632,47.824 86.5280018,48.0666642 86.16,48.552 C85.7919982,49.0373358 85.608,49.6586629 85.608,50.416 C85.608,51.141337 85.7866649,51.7573308 86.144,52.264 C86.5013351,52.7706692 87.0319965,53.024 87.736,53.024 C88.4293368,53.024 88.9653314,52.7760025 89.344,52.28 C89.7226686,51.7839975 89.912,51.1520038 89.912,50.384 Z M96.088,42.832 C96.4186683,42.832 96.7359985,42.869333 97.04,42.944 C97.3440015,43.018667 97.629332,43.1626656 97.896,43.376 L98.184,45.12 L97.064,45.264 L96.76,44.064 C96.5359989,43.989333 96.2853347,43.952 96.008,43.952 C95.2506629,43.952 94.872,44.4426618 94.872,45.424 L94.872,46.848 L96.712,46.848 L96.712,47.92 L94.872,47.92 L94.872,52.912 L96.376,52.912 L96.376,54 L92.312,54 L92.312,52.912 L93.48,52.912 L93.48,47.92 L92.488,47.92 L92.488,46.848 L93.48,46.848 L93.48,45.584 C93.48,44.7733293 93.7253309,44.1120026 94.216,43.6 C94.7066691,43.0879974 95.3306629,42.832 96.088,42.832 Z M103.16,51.984 C102.957332,53.4346739 102.15734,54.16 100.76,54.16 C100.023996,54.16 99.4506687,53.960002 99.04,53.56 C98.6293313,53.159998 98.424,52.6026702 98.424,51.888 L98.424,47.92 L97.32,47.92 L97.32,46.848 L98.424,46.848 L98.424,44.592 L99.816,44.592 L99.816,46.848 L102.552,46.848 L102.552,47.92 L99.816,47.92 L99.816,51.68 C99.816,52.5333376 100.183996,52.96 100.92,52.96 C101.154668,52.96 101.389332,52.8826674 101.624,52.728 C101.858668,52.5733326 102.024,52.2133362 102.12,51.648 L103.16,51.984 Z M115.256,47.952 L114.488,47.952 L112.424,54 L111.368,54 L109.288,48.896 L109.208,48.896 L107.192,54 L106.184,54 L104.056,47.952 L103.32,47.952 L103.32,46.848 L106.808,46.848 L106.808,47.952 L105.56,47.952 L106.872,51.952 L106.952,51.952 L108.936,46.848 L109.832,46.848 L111.976,51.936 L112.072,51.936 L113.176,47.952 L111.976,47.952 L111.976,46.848 L115.256,46.848 L115.256,47.952 Z M116.648,47.392 C117.085336,47.1359987 117.514665,46.9573338 117.936,46.856 C118.357335,46.7546662 118.818664,46.704 119.32,46.704 C120.130671,46.704 120.773331,46.9013314 121.248,47.296 C121.722669,47.6906686 121.96,48.2986626 121.96,49.12 L121.96,52.432 C121.96,52.9013357 122.146665,53.136 122.52,53.136 C122.669334,53.136 122.813333,53.1093336 122.952,53.056 L122.968,53.888 C122.669332,54.0693342 122.322669,54.16 121.928,54.16 C121.063996,54.16 120.605334,53.6800048 120.552,52.72 L120.552,52.704 C120.338666,53.0773352 120.032002,53.4133318 119.632,53.712 C119.231998,54.0106682 118.744003,54.16 118.168,54.16 C117.677331,54.16 117.189336,54.0106682 116.704,53.712 C116.218664,53.4133318 115.976,52.8906704 115.976,52.144 C115.976,51.2479955 116.330663,50.6586681 117.04,50.376 C117.749337,50.0933319 118.509329,49.952 119.32,49.952 C119.810669,49.952 120.221332,49.9733331 120.552,50.016 L120.552,49.488 C120.552,49.0186643 120.461334,48.6186683 120.28,48.288 C120.098666,47.9573317 119.693336,47.792 119.064,47.792 C118.551997,47.792 118.120002,47.8826658 117.768,48.064 L117.496,49.232 L116.36,49.104 L116.648,47.392 Z M120.552,51.248 L120.552,50.832 C120.359999,50.8106666 120.160001,50.7920001 119.952,50.776 C119.743999,50.7599999 119.533334,50.752 119.32,50.752 C118.829331,50.752 118.392002,50.8319992 118.008,50.992 C117.623998,51.1520008 117.432,51.4826642 117.432,51.984 C117.432,52.3680019 117.551999,52.6453325 117.792,52.816 C118.032001,52.9866675 118.306665,53.072 118.616,53.072 C119.074669,53.072 119.501331,52.9120016 119.896,52.592 C120.290669,52.2719984 120.509333,51.8240029 120.552,51.248 Z M127.928,46.736 C128.429336,46.736 128.855998,46.8639987 129.208,47.12 L129.496,49.12 L128.392,49.248 L128.12,48.016 C127.938666,47.941333 127.752001,47.904 127.56,47.904 C127.197332,47.904 126.893335,48.0559985 126.648,48.36 C126.402665,48.6640015 126.28,49.0613309 126.28,49.552 L126.28,52.912 L127.816,52.912 L127.816,54 L123.72,54 L123.72,52.912 L124.872,52.912 L124.872,47.952 L123.672,47.952 L123.672,46.848 L126.184,46.848 L126.184,48.16 C126.322667,47.7546646 126.538665,47.4160014 126.832,47.144 C127.125335,46.8719986 127.490664,46.736 127.928,46.736 Z M137.144,51.888 C137.069333,52.5066698 136.765336,53.0399978 136.232,53.488 C135.698664,53.9360022 134.973338,54.16 134.056,54.16 C133.021328,54.16 132.184003,53.8506698 131.544,53.232 C130.903997,52.6133302 130.584,51.7173392 130.584,50.544 C130.584,49.4346611 130.882664,48.517337 131.48,47.792 C132.077336,47.066663 132.903995,46.704 133.96,46.704 C134.941338,46.704 135.703997,47.007997 136.248,47.616 C136.792003,48.224003 137.069333,48.9599957 137.08,49.824 C137.08,50.1120014 137.048,50.4159984 136.984,50.736 L132.056,50.736 C132.12,52.2506742 132.81866,53.008 134.152,53.008 C134.706669,53.008 135.125332,52.874668 135.408,52.608 C135.690668,52.341332 135.88,52.0213352 135.976,51.648 L137.144,51.888 Z M135.624,49.792 C135.666667,49.3226643 135.552001,48.8720022 135.28,48.44 C135.007999,48.0079978 134.557336,47.792 133.928,47.792 C133.34133,47.792 132.901335,47.9866647 132.608,48.376 C132.314665,48.7653353 132.136,49.2373306 132.072,49.792 L135.624,49.792 Z M147.144,51.984 C146.941332,53.4346739 146.14134,54.16 144.744,54.16 C144.007996,54.16 143.434669,53.960002 143.024,53.56 C142.613331,53.159998 142.408,52.6026702 142.408,51.888 L142.408,47.92 L141.304,47.92 L141.304,46.848 L142.408,46.848 L142.408,44.592 L143.8,44.592 L143.8,46.848 L146.536,46.848 L146.536,47.92 L143.8,47.92 L143.8,51.68 C143.8,52.5333376 144.167996,52.96 144.904,52.96 C145.138668,52.96 145.373332,52.8826674 145.608,52.728 C145.842668,52.5733326 146.008,52.2133362 146.104,51.648 L147.144,51.984 Z M154.248,51.888 C154.173333,52.5066698 153.869336,53.0399978 153.336,53.488 C152.802664,53.9360022 152.077338,54.16 151.16,54.16 C150.125328,54.16 149.288003,53.8506698 148.648,53.232 C148.007997,52.6133302 147.688,51.7173392 147.688,50.544 C147.688,49.4346611 147.986664,48.517337 148.584,47.792 C149.181336,47.066663 150.007995,46.704 151.064,46.704 C152.045338,46.704 152.807997,47.007997 153.352,47.616 C153.896003,48.224003 154.173333,48.9599957 154.184,49.824 C154.184,50.1120014 154.152,50.4159984 154.088,50.736 L149.16,50.736 C149.224,52.2506742 149.92266,53.008 151.256,53.008 C151.810669,53.008 152.229332,52.874668 152.512,52.608 C152.794668,52.341332 152.984,52.0213352 153.08,51.648 L154.248,51.888 Z M152.728,49.792 C152.770667,49.3226643 152.656001,48.8720022 152.384,48.44 C152.111999,48.0079978 151.661336,47.792 151.032,47.792 C150.44533,47.792 150.005335,47.9866647 149.712,48.376 C149.418665,48.7653353 149.24,49.2373306 149.176,49.792 L152.728,49.792 Z M161.288,51.904 C161.288,52.6186702 160.992003,53.1733314 160.4,53.568 C159.807997,53.9626686 159.058671,54.16 158.152,54.16 C157.053328,54.16 156.120004,53.9253357 155.352,53.456 L155.576,51.728 L156.68,51.84 L156.648,52.768 C156.861334,52.8746672 157.093332,52.9493331 157.344,52.992 C157.594668,53.0346669 157.842665,53.056 158.088,53.056 C158.546669,53.056 158.959998,52.9706675 159.328,52.8 C159.696002,52.6293325 159.88,52.3626685 159.88,52 C159.88,51.6479982 159.730668,51.4000007 159.432,51.256 C159.133332,51.1119993 158.762669,51.002667 158.32,50.928 C157.877331,50.853333 157.437336,50.7600006 157,50.648 C156.562664,50.5359994 156.194668,50.3440014 155.896,50.072 C155.597332,49.7999986 155.448,49.3866694 155.448,48.832 C155.448,48.031996 155.743997,47.4773349 156.336,47.168 C156.928003,46.8586651 157.559997,46.704 158.232,46.704 C158.722669,46.704 159.183998,46.7653327 159.616,46.888 C160.048002,47.0106673 160.439998,47.167999 160.792,47.36 L160.952,49.088 L159.832,49.216 L159.672,48.096 C159.234664,47.8933323 158.776002,47.792 158.296,47.792 C157.901331,47.792 157.576001,47.8666659 157.32,48.016 C157.063999,48.1653341 156.936,48.410665 156.936,48.752 C156.936,49.0826683 157.082665,49.3173326 157.376,49.456 C157.669335,49.5946674 158.031998,49.6986663 158.464,49.768 C158.896002,49.8373337 159.327998,49.9306661 159.76,50.048 C160.192002,50.1653339 160.554665,50.3626653 160.848,50.64 C161.141335,50.9173347 161.288,51.3386638 161.288,51.904 Z M167.896,51.984 C167.693332,53.4346739 166.89334,54.16 165.496,54.16 C164.759996,54.16 164.186669,53.960002 163.776,53.56 C163.365331,53.159998 163.16,52.6026702 163.16,51.888 L163.16,47.92 L162.056,47.92 L162.056,46.848 L163.16,46.848 L163.16,44.592 L164.552,44.592 L164.552,46.848 L167.288,46.848 L167.288,47.92 L164.552,47.92 L164.552,51.68 C164.552,52.5333376 164.919996,52.96 165.656,52.96 C165.890668,52.96 166.125332,52.8826674 166.36,52.728 C166.594668,52.5733326 166.76,52.2133362 166.856,51.648 L167.896,51.984 Z M169.512,45.168 L169.512,43.52 L170.968,43.52 L170.968,45.168 L169.512,45.168 Z M172.168,54 L168.44,54 L168.44,52.912 L169.608,52.912 L169.608,47.952 L168.392,47.952 L168.392,46.848 L171.016,46.848 L171.016,52.912 L172.168,52.912 L172.168,54 Z M181.592,54 L177.88,54 L177.88,52.912 L179.032,52.912 L179.032,49.824 C179.032,49.098663 178.893335,48.5840015 178.616,48.28 C178.338665,47.9759985 177.970669,47.824 177.512,47.824 C176.914664,47.824 176.440002,48.0213314 176.088,48.416 C175.735998,48.8106686 175.549333,49.2693307 175.528,49.792 L175.528,52.912 L176.68,52.912 L176.68,54 L172.968,54 L172.968,52.912 L174.12,52.912 L174.12,47.952 L172.92,47.952 L172.92,46.848 L175.528,46.848 L175.528,48.064 C176.029336,47.1573288 176.839994,46.704 177.96,46.704 C178.653337,46.704 179.239998,46.9173312 179.72,47.344 C180.200002,47.7706688 180.44,48.4373288 180.44,49.344 L180.44,52.912 L181.592,52.912 L181.592,54 Z M190.36,47.952 L189.256,47.952 L189.256,53.824 C189.256,54.9546723 188.944003,55.8613299 188.32,56.544 C187.695997,57.2266701 186.797339,57.568 185.624,57.568 C184.87733,57.568 184.19467,57.4000017 183.576,57.064 C182.95733,56.7279983 182.536001,56.1866704 182.312,55.44 L183.4,54.88 C183.602668,55.4026693 183.911998,55.7866654 184.328,56.032 C184.744002,56.2773346 185.186664,56.4 185.656,56.4 C186.296003,56.4 186.823998,56.1760022 187.24,55.728 C187.656002,55.2799978 187.864,54.6346709 187.864,53.792 L187.864,52.592 C187.650666,52.9973354 187.346669,53.3439986 186.952,53.632 C186.557331,53.9200014 186.029337,54.064 185.368,54.064 C184.514662,54.064 183.78667,53.768003 183.184,53.176 C182.58133,52.583997 182.28,51.7226723 182.28,50.592 C182.28,49.6106618 182.546664,48.7173374 183.08,47.912 C183.613336,47.1066626 184.418661,46.704 185.496,46.704 C186.605339,46.704 187.394664,47.1253291 187.864,47.968 L187.864,46.848 L190.36,46.848 L190.36,47.952 Z M187.864,50.768 L187.864,49.84 C187.864,49.2426637 187.672002,48.7626685 187.288,48.4 C186.903998,48.0373315 186.440003,47.856 185.896,47.856 C185.191996,47.856 184.669335,48.1093308 184.328,48.616 C183.986665,49.1226692 183.816,49.7493296 183.816,50.496 C183.816,51.3173374 183.999998,51.9253314 184.368,52.32 C184.736002,52.7146686 185.186664,52.912 185.72,52.912 C186.360003,52.912 186.871998,52.6880022 187.256,52.24 C187.640002,51.7919978 187.842667,51.301336 187.864,50.768 Z M198.264,42.832 C198.594668,42.832 198.911998,42.869333 199.216,42.944 C199.520002,43.018667 199.805332,43.1626656 200.072,43.376 L200.36,45.12 L199.24,45.264 L198.936,44.064 C198.711999,43.989333 198.461335,43.952 198.184,43.952 C197.426663,43.952 197.048,44.4426618 197.048,45.424 L197.048,46.848 L198.888,46.848 L198.888,47.92 L197.048,47.92 L197.048,52.912 L198.552,52.912 L198.552,54 L194.488,54 L194.488,52.912 L195.656,52.912 L195.656,47.92 L194.664,47.92 L194.664,46.848 L195.656,46.848 L195.656,45.584 C195.656,44.7733293 195.901331,44.1120026 196.392,43.6 C196.882669,43.0879974 197.506663,42.832 198.264,42.832 Z M207.032,50.432 C207.032,51.5306722 206.693337,52.4266632 206.016,53.12 C205.338663,53.8133368 204.445339,54.16 203.336,54.16 C202.247995,54.16 201.38667,53.8240034 200.752,53.152 C200.11733,52.4799966 199.8,51.5946722 199.8,50.496 C199.8,49.4506614 200.103997,48.5546704 200.712,47.808 C201.320003,47.0613296 202.226661,46.688 203.432,46.688 C204.637339,46.688 205.538664,47.058663 206.136,47.8 C206.733336,48.541337 207.032,49.4186616 207.032,50.432 Z M205.56,50.384 C205.56,49.5946627 205.365335,48.970669 204.976,48.512 C204.586665,48.053331 204.061337,47.824 203.4,47.824 C202.706663,47.824 202.176002,48.0666642 201.808,48.552 C201.439998,49.0373358 201.256,49.6586629 201.256,50.416 C201.256,51.141337 201.434665,51.7573308 201.792,52.264 C202.149335,52.7706692 202.679996,53.024 203.384,53.024 C204.077337,53.024 204.613331,52.7760025 204.992,52.28 C205.370669,51.7839975 205.56,51.1520038 205.56,50.384 Z M212.232,46.736 C212.733336,46.736 213.159998,46.8639987 213.512,47.12 L213.8,49.12 L212.696,49.248 L212.424,48.016 C212.242666,47.941333 212.056001,47.904 211.864,47.904 C211.501332,47.904 211.197335,48.0559985 210.952,48.36 C210.706665,48.6640015 210.584,49.0613309 210.584,49.552 L210.584,52.912 L212.12,52.912 L212.12,54 L208.024,54 L208.024,52.912 L209.176,52.912 L209.176,47.952 L207.976,47.952 L207.976,46.848 L210.488,46.848 L210.488,48.16 C210.626667,47.7546646 210.842665,47.4160014 211.136,47.144 C211.429335,46.8719986 211.794664,46.736 212.232,46.736 Z M226.712,54 L222.984,54 L222.984,52.912 L224.152,52.912 L224.152,49.824 C224.152,49.098663 224.008001,48.5840015 223.72,48.28 C223.431999,47.9759985 223.053336,47.824 222.584,47.824 C222.007997,47.824 221.544002,48.0186647 221.192,48.408 C220.839998,48.7973353 220.653333,49.2426642 220.632,49.744 L220.632,52.912 L221.8,52.912 L221.8,54 L218.088,54 L218.088,52.912 L219.24,52.912 L219.24,44.096 L218.088,44.096 L218.088,42.992 L220.632,42.992 L220.632,48.08 C221.154669,47.1626621 221.970661,46.704 223.08,46.704 C223.773337,46.704 224.359998,46.9173312 224.84,47.344 C225.320002,47.7706688 225.56,48.4373288 225.56,49.344 L225.56,52.912 L226.712,52.912 L226.712,54 Z M235.72,54 L233.112,54 L233.112,52.72 C232.621331,53.6800048 231.816006,54.16 230.696,54.16 C230.002663,54.16 229.413336,53.9466688 228.928,53.52 C228.442664,53.0933312 228.2,52.4213379 228.2,51.504 L228.2,47.952 L227.048,47.952 L227.048,46.848 L229.608,46.848 L229.608,51.04 C229.608,51.765337 229.749332,52.2773318 230.032,52.576 C230.314668,52.8746682 230.695998,53.024 231.176,53.024 C231.752003,53.024 232.215998,52.8133354 232.568,52.392 C232.920002,51.9706646 233.101333,51.5040026 233.112,50.992 L233.112,47.952 L231.72,47.952 L231.72,46.848 L234.52,46.848 L234.52,52.912 L235.72,52.912 L235.72,54 Z M249.672,54 L246.376,54 L246.376,52.912 L247.112,52.912 L247.112,49.824 C247.112,49.098663 246.976001,48.5840015 246.704,48.28 C246.431999,47.9759985 246.066669,47.824 245.608,47.824 C244.98933,47.824 244.528002,48.0479978 244.224,48.496 C243.919998,48.9440022 243.762667,49.397331 243.752,49.856 L243.752,52.912 L244.904,52.912 L244.904,54 L241.608,54 L241.608,52.912 L242.344,52.912 L242.344,49.824 C242.344,49.0879963 242.208001,48.5706682 241.936,48.272 C241.663999,47.9733318 241.304002,47.824 240.856,47.824 C240.247997,47.824 239.789335,48.0426645 239.48,48.48 C239.170665,48.9173355 239.010667,49.365331 239,49.824 L239,52.912 L240.328,52.912 L240.328,54 L236.44,54 L236.44,52.912 L237.592,52.912 L237.592,47.952 L236.424,47.952 L236.424,46.848 L239,46.848 L239,48.112 C239.224001,47.6959979 239.527998,47.3573346 239.912,47.096 C240.296002,46.8346654 240.765331,46.704 241.32,46.704 C241.864003,46.704 242.343998,46.8399986 242.76,47.112 C243.176002,47.3840014 243.463999,47.8026638 243.624,48.368 C243.837334,47.8773309 244.151998,47.4773349 244.568,47.168 C244.984002,46.8586651 245.490664,46.704 246.088,46.704 C246.760003,46.704 247.330664,46.9173312 247.8,47.344 C248.269336,47.7706688 248.504,48.4373288 248.504,49.344 L248.504,52.912 L249.672,52.912 L249.672,54 Z M251.064,47.392 C251.501336,47.1359987 251.930665,46.9573338 252.352,46.856 C252.773335,46.7546662 253.234664,46.704 253.736,46.704 C254.546671,46.704 255.189331,46.9013314 255.664,47.296 C256.138669,47.6906686 256.376,48.2986626 256.376,49.12 L256.376,52.432 C256.376,52.9013357 256.562665,53.136 256.936,53.136 C257.085334,53.136 257.229333,53.1093336 257.368,53.056 L257.384,53.888 C257.085332,54.0693342 256.738669,54.16 256.344,54.16 C255.479996,54.16 255.021334,53.6800048 254.968,52.72 L254.968,52.704 C254.754666,53.0773352 254.448002,53.4133318 254.048,53.712 C253.647998,54.0106682 253.160003,54.16 252.584,54.16 C252.093331,54.16 251.605336,54.0106682 251.12,53.712 C250.634664,53.4133318 250.392,52.8906704 250.392,52.144 C250.392,51.2479955 250.746663,50.6586681 251.456,50.376 C252.165337,50.0933319 252.925329,49.952 253.736,49.952 C254.226669,49.952 254.637332,49.9733331 254.968,50.016 L254.968,49.488 C254.968,49.0186643 254.877334,48.6186683 254.696,48.288 C254.514666,47.9573317 254.109336,47.792 253.48,47.792 C252.967997,47.792 252.536002,47.8826658 252.184,48.064 L251.912,49.232 L250.776,49.104 L251.064,47.392 Z M254.968,51.248 L254.968,50.832 C254.775999,50.8106666 254.576001,50.7920001 254.368,50.776 C254.159999,50.7599999 253.949334,50.752 253.736,50.752 C253.245331,50.752 252.808002,50.8319992 252.424,50.992 C252.039998,51.1520008 251.848,51.4826642 251.848,51.984 C251.848,52.3680019 251.967999,52.6453325 252.208,52.816 C252.448001,52.9866675 252.722665,53.072 253.032,53.072 C253.490669,53.072 253.917331,52.9120016 254.312,52.592 C254.706669,52.2719984 254.925333,51.8240029 254.968,51.248 Z M266.76,54 L263.048,54 L263.048,52.912 L264.2,52.912 L264.2,49.824 C264.2,49.098663 264.061335,48.5840015 263.784,48.28 C263.506665,47.9759985 263.138669,47.824 262.68,47.824 C262.082664,47.824 261.608002,48.0213314 261.256,48.416 C260.903998,48.8106686 260.717333,49.2693307 260.696,49.792 L260.696,52.912 L261.848,52.912 L261.848,54 L258.136,54 L258.136,52.912 L259.288,52.912 L259.288,47.952 L258.088,47.952 L258.088,46.848 L260.696,46.848 L260.696,48.064 C261.197336,47.1573288 262.007994,46.704 263.128,46.704 C263.821337,46.704 264.407998,46.9173312 264.888,47.344 C265.368002,47.7706688 265.608,48.4373288 265.608,49.344 L265.608,52.912 L266.76,52.912 L266.76,54 Z M273.464,51.904 C273.464,52.6186702 273.168003,53.1733314 272.576,53.568 C271.983997,53.9626686 271.234671,54.16 270.328,54.16 C269.229328,54.16 268.296004,53.9253357 267.528,53.456 L267.752,51.728 L268.856,51.84 L268.824,52.768 C269.037334,52.8746672 269.269332,52.9493331 269.52,52.992 C269.770668,53.0346669 270.018665,53.056 270.264,53.056 C270.722669,53.056 271.135998,52.9706675 271.504,52.8 C271.872002,52.6293325 272.056,52.3626685 272.056,52 C272.056,51.6479982 271.906668,51.4000007 271.608,51.256 C271.309332,51.1119993 270.938669,51.002667 270.496,50.928 C270.053331,50.853333 269.613336,50.7600006 269.176,50.648 C268.738664,50.5359994 268.370668,50.3440014 268.072,50.072 C267.773332,49.7999986 267.624,49.3866694 267.624,48.832 C267.624,48.031996 267.919997,47.4773349 268.512,47.168 C269.104003,46.8586651 269.735997,46.704 270.408,46.704 C270.898669,46.704 271.359998,46.7653327 271.792,46.888 C272.224002,47.0106673 272.615998,47.167999 272.968,47.36 L273.128,49.088 L272.008,49.216 L271.848,48.096 C271.410664,47.8933323 270.952002,47.792 270.472,47.792 C270.077331,47.792 269.752001,47.8666659 269.496,48.016 C269.239999,48.1653341 269.112,48.410665 269.112,48.752 C269.112,49.0826683 269.258665,49.3173326 269.552,49.456 C269.845335,49.5946674 270.207998,49.6986663 270.64,49.768 C271.072002,49.8373337 271.503998,49.9306661 271.936,50.048 C272.368002,50.1653339 272.730665,50.3626653 273.024,50.64 C273.317335,50.9173347 273.464,51.3386638 273.464,51.904 Z M274.84,54 L274.84,52.016 L276.664,52.016 L276.664,54 L274.84,54 Z"/>
  </g>
</svg>
