<svg xmlns="http://www.w3.org/2000/svg" id="Layer_1" viewBox="0 0 580 425">
  <style>
    .st0{fill:#EAEFEF;} .st1{fill:none;stroke:#9DA7AA;stroke-miterlimit:10;} .st2{fill:#FFFFFF;} .st3{fill:#464C55;} .st4{fill:#03FF8C;} .st5{fill:#B0E4FE;} .st6{fill:#FFFFFF;stroke:#B2B2B2;stroke-width:2;stroke-miterlimit:10;} .st7{fill:#E8ECEF;} .st8{fill:#B0E4FE;stroke:#2CC7FF;stroke-width:2;stroke-miterlimit:10;} .st9{fill:#888AF1;stroke:#48337C;stroke-width:2;stroke-miterlimit:10;}
  </style>
  <g class="cogLarge">
    <path id="FlashAICB_Layer_1__Compound_Path__0_Layer0_0_FILL" d="M202.6 103c-2-1.2-6.2-.6-12.8 1.5-2.6-5-6-9.7-9.4-14.2 4.4-5.3 6.5-9 6-11.3 0-.4-1.3-1.8-3.6-4-2.5-2.3-3.8-3.5-4-3.4-2-.3-6 1.8-11 6.3-4.3-3.5-8.2-6.3-12.4-8.4 2.5-6.7 3-11 2-13.3-.4-.5-2-1.4-4.8-2.6-3-1.3-4.5-1.8-5.2-1.6-2.3.7-5 4.2-8.4 10.5-5.4-1.6-11-3-17.6-3.4-.6-6.7-2-11-3.7-12.3-.4-.2-2-.3-5.4-.3-3.3 0-5 .3-5.3.6-2 1.4-3 5.4-3.5 12.4-5.4.7-10.6 1.8-15.3 3.2-3-6.2-5.6-9.7-7.8-10.3-.5-.2-2.2.3-5 1.5-3 1.2-4.7 2-5 2.6-1.4 2-.8 6.4 1.4 13.2-5 2.8-9.5 6-13.8 9.4-5.4-4.6-9.2-6.6-11.6-6.4L43 75.8c-2.2 2.4-3.5 4-3.4 4.3-.4 2.4 1.8 6.2 6.5 11.4-3.2 4.4-6 8.6-8.4 13-6.5-2-10.8-2.7-12.7-1.5-.4.2-1.3 1.7-2.5 4.6-1.3 3-2 4.7-1.7 5.4.6 2.3 4 5 10 8.2-1.4 5-2.3 10.4-3 16-6.8.6-11 1.8-12.4 3.7-.3 0-.4 1.7-.3 4.8.2 3 .4 5 .6 5.4 1.5 1.8 5.7 3 12.8 3.4.8 5.4 1.8 10.6 3.2 15-6.5 3.2-10 6-10.8 8-.3.7.2 2.4 1.5 5.2 1.2 3 2 4.5 2.8 4.8 2.3 1.2 6.8.7 13.6-1.5 2.7 5 6 9.7 9.3 13.6-4.7 5.4-7 9.4-6.8 12 0 .5 1.4 2 3.5 4 2.3 2.2 3.7 3.2 4.3 3.3 2.4 0 6.2-2.2 11.5-7 3.8 3 8 5.7 12.6 8.2-2.2 6.8-3 11.2-2 13.4.4.6 2 1.5 4.8 2.7 2.8 1.2 4.6 1.7 5.5 1.5 2.4-.8 5-4.3 8.5-10.8 5.4 1.5 10.6 2.7 15.4 3 .6 7 1.8 11.5 3.8 13 .6.6 2.5.8 5.5 1 3 0 4.8-.3 5.4-.7 1.8-1.6 3-6 3-13.2 5.5-.5 10.4-1.5 15-2.8 3 6.5 5.6 10.2 8 11 .6.3 2.4-.2 5.2-1.4 2.7-1 4.4-2 4.8-2.6 1.2-2.2.6-6.7-1.7-13.6 4.7-2.5 9.3-5.4 13.7-9 5.3 4.5 9.3 6.8 11.7 6.4.6 0 2-1 4.3-3.5 2-2 3.2-3.5 3.4-4.2.2-2.4-2-6-6.7-11.3 3.4-4.2 6.3-8.5 8.6-13 6.6 2.2 11 3 13 1.8.6-.2 1.3-2 2.5-4.7 1.3-2.8 1.8-4.5 1.6-5-.6-2.4-4-5-10.3-8.2 1.8-5.4 2.8-10.7 3.4-16 7-.4 11-1.7 12.6-3.7.4-.4.6-2 .5-5.4 0-3.3-.3-5-.5-5.3-1.3-1.8-5.5-3-12.5-3.3-.4-5-1.5-10.3-3-15.4 6.2-3 9.8-5.6 10.3-7.8 0-.4-.5-2.3-1.5-5-1.4-3-2.3-4.6-2.7-4.8m-74.5 8c9.4 4 16 10.5 19.7 20 3.7 9.2 3.6 18.6-.4 28-4 9.2-10.6 15.7-20 19.4-9.3 3.8-18.7 3.6-28-.3-9.3-4-15.8-10.6-19.5-20-3.8-9.3-3.7-18.6.3-28 4-9.2 10.8-15.7 20-19.5 9.4-3.6 18.8-3.6 28 .4z" class="st0"/>
    <path id="FlashAICB_Layer_1__Compound_Path__0_Layer0_0_1_STROKES" d="M204.4 183c1.3-2.8 1.7-4.4 1.6-5-.6-2.4-4-5-10.4-8.2 1.7-5.4 2.8-10.7 3.4-16 7-.4 11-1.7 12.6-3.7.4-.3.5-2 .5-5.4 0-3.2-.2-5-.4-5.3-1.3-1.8-5.5-3-12.5-3.3-.4-5-1.4-10.2-3-15.4 6.3-3 9.8-5.6 10.4-7.8 0-.3-.5-2.2-1.5-5-1.3-3-2-4.6-2.6-4.8-2-1.3-6.2-.7-12.8 1.4-2.6-5-6-9.6-9.4-14.2 4.5-5.2 6.5-9 6-11.3 0-.5-1.2-2-3.5-4-2.5-2.4-4-3.5-4-3.5-2.2-.2-6 1.8-11.2 6.3-4.2-3.4-8-6-12.3-8.3 2.7-6.6 3.3-11 2.2-13.2-.4-.5-2-1.4-4.8-2.6-3-1.3-4.5-1.8-5.2-1.6-2.3.7-5 4.2-8.4 10.5-5.4-1.6-11-3-17.6-3.4-.6-6.7-2-11-3.7-12.3-.4-.2-2-.3-5.4-.3-3.3 0-5 .3-5.3.6-2 1.4-3 5.4-3.5 12.4-5.4.7-10.6 1.8-15.3 3.2-3-6.2-5.6-9.7-7.8-10.3-.5-.2-2.2.3-5 1.5-3 1.2-4.7 2-5 2.6-1.4 2-.8 6.4 1.4 13.2-5 2.8-9.5 6-13.8 9.4-5.4-4.6-9.2-6.6-11.6-6.4L43 75.8c-2.2 2.4-3.5 4-3.4 4.3-.4 2.4 1.8 6.2 6.5 11.4-3.2 4.4-6 8.6-8.4 13-6.5-2-10.8-2.7-12.7-1.5-.4.2-1.3 1.7-2.5 4.6-1.3 3-2 4.7-1.7 5.4.6 2.3 4 5 10 8.2-1.4 5-2.3 10.4-3 16-6.8.6-11 1.8-12.4 3.7-.3 0-.4 1.7-.3 4.8.2 3 .4 5 .6 5.4 1.5 1.8 5.7 3 12.8 3.4.8 5.4 1.8 10.6 3.2 15-6.5 3.2-10 6-10.8 8-.3.7.2 2.4 1.5 5.2 1.2 3 2 4.5 2.8 4.8 2.3 1.2 6.8.7 13.6-1.5 2.7 5 6 9.7 9.3 13.6-4.7 5.4-7 9.4-6.8 12 0 .5 1.4 2 3.5 4 2.3 2.2 3.7 3.2 4.3 3.3 2.4 0 6.2-2.2 11.5-7 3.8 3 8 5.7 12.6 8.2-2.2 6.8-3 11.2-2 13.4.4.6 2 1.5 4.8 2.7 2.8 1.2 4.6 1.7 5.5 1.5 2.4-.8 5-4.3 8.5-10.8 5.4 1.5 10.6 2.7 15.4 3 .6 7 1.8 11.5 3.8 13 .6.6 2.5.8 5.5 1 3 0 4.8-.3 5.4-.7 1.8-1.6 3-6 3-13.2 5.5-.5 10.4-1.5 15-2.8 3 6.5 5.6 10.2 8 11 .6.3 2.4-.2 5.2-1.4 2.7-1 4.4-2 4.8-2.6 1.2-2.2.6-6.7-1.7-13.6 4.7-2.5 9.3-5.4 13.7-9 5.3 4.5 9.3 6.8 11.7 6.4.6 0 2-1 4.3-3.5 2-2 3.2-3.5 3.4-4.2.2-2.4-2-6-6.7-11.3 3.4-4.2 6.3-8.5 8.6-13 6.6 2.2 11 3 13 1.8 0-.3.8-1.8 2-4.7zm-105-4.8c-9.5-4-16-10.6-19.7-20-3.8-9.3-3.6-18.6.4-28 4-9.3 10.7-15.8 20-19.5 9.4-3.8 18.7-3.6 28 .4s16 10.7 19.6 20c3.7 9.4 3.6 18.7-.4 28s-10.6 16-20 19.6c-9.3 3.7-18.6 3.6-28-.4z" class="st1"/>
  </g>
  <g class="cogSmall">
    <path id="FlashAICB_0_Layer_1__Compound_Path__0_Layer0_0_FILL" d="M245 42.8c-2-1.2-4.2-2.2-6.4-3l-4.2-9.4c-3.6-.6-7.4-.6-11.7 0l-4 9.4c-4.8 1.4-8.8 4-12.4 7L196 45.6l-3.3 5-2.5 5 6 8.6c-1 4.5-1 9.3 0 14l-6.2 8.5c1.5 3.7 3.5 7 5.8 10l10.4-1c2 1.7 3.7 3 5.7 4 1.8 1.2 4 2.3 6.4 3l4.2 9.6c3.8.5 7.7.5 11.7 0l4-9.6c4.7-1.4 8.7-3.8 12.3-7L261 97l3.3-4.8L267 87l-6.4-8.4c1.2-4.5 1-9.3 0-14l6.3-8.3c-1.7-4-3.7-7.3-6-10l-10.4 1c-1.6-2-3.7-3.4-5.6-4.5M223.5 52c5.3-1.5 10.3-.8 15.2 2 4.7 2.8 7.7 7 9.3 12 1.4 5.5.7 10.5-2 15.2-2.7 4.7-6.7 7.8-12 9.3-5.5 1.4-10.5.7-15.2-2-4.8-2.8-8-6.8-9.2-12-1.5-5.5-.8-10.5 2-15.2 2.4-5 6.5-8 12-9.3z" class="st0"/>
    <path id="FlashAICB_0_Layer_1__Compound_Path__0_Layer0_0_1_STROKES" d="M245.7 81.3c-2.7 4.7-6.7 7.8-12 9.2-5.4 1.5-10.4.7-15-2-5-2.8-8-6.7-9.4-12-1.4-5.4-.7-10.4 2-15 2.8-5 7-8 12.2-9.3 5.4-1.4 10.4-.7 15.3 2 4.7 2.8 7.7 7 9.2 12.2 1.2 5 .5 10-2.3 15zm-.7-38.5c-2-1.2-4.2-2.2-6.4-3l-4.2-9.4c-3.6-.6-7.4-.6-11.7 0l-4 9.4c-4.8 1.4-8.8 4-12.4 7L196 45.6l-3.3 5-2.5 5 6 8.6c-1 4.5-1 9.3 0 14l-6.2 8.5c1.5 3.7 3.5 7 5.8 10l10.4-1c2 1.7 3.7 3 5.7 4 1.8 1.2 4 2.3 6.4 3l4.2 9.6c3.8.5 7.7.5 11.7 0l4-9.6c4.7-1.4 8.7-3.8 12.3-7L261 97l3.3-4.8L267 87l-6.4-8.4c1.2-4.5 1-9.3 0-14l6.3-8.3c-1.7-4-3.7-7.3-6-10l-10.4 1c-1.6-2-3.7-3.4-5.6-4.5z" class="st1"/>
  </g>
  <path id="FlashAICB_3_Layer_1__Group__2_0_Layer0_0_MEMBER_0_FILL" d="M485 144.6c0-4.6-1.8-8.5-5-11.8-3.4-3.4-7.4-4.8-11.7-4.8H146.7c-4.6 0-8.5 1.6-11.6 4.8s-5 7-5 11.8v224c0 4.6 1.8 8.3 5 12 3.4 3.2 7 4.6 11.7 4.6h321.6c4.5 0 8.5-1.6 11.6-4.7 3.2-3.3 5-7.3 5-12v-224z" class="st2"/>
  <path id="FlashAICB_3_Layer_1__Group__2_0_Layer0_0_MEMBER_0_1_STROKES" d="M468.3 385.2H146.7c-4.6 0-8.5-1.6-11.6-4.7-3.2-3.3-5-7.3-5-12v-224c0-4.5 1.8-8.4 5-11.7s7-4.8 11.7-4.8h321.6c4.5 0 8.5 1.6 11.6 4.8 3.2 3.3 5 7 5 11.8v224c0 4.6-1.8 8.3-5 12-3.2 3-7.2 4.6-11.7 4.6z" class="st1"/>
  <path id="FlashAICB_3_Layer_1__Group__2_0_Layer0_0_MEMBER_1_FILL" d="M532.6 394.4c3.5 0 6.4-1.3 8.7-3.8 2.5-2.2 3.7-5 3.7-8.7v-.3c0-3.5-1.2-6.4-3.7-8.7-2.5-2.5-5.4-3.7-8.7-3.7H82.2c-3.3 0-6.2 1.2-8.7 3.7-2.5 2.5-3.8 5.4-3.8 8.7v.2c0 3.5 1.3 6.4 3.8 8.6 2.5 2.5 5.4 3.8 8.7 3.8h450.4z" class="st2"/>
  <path id="FlashAICB_3_Layer_1__Group__2_0_Layer0_0_MEMBER_1_1_STROKES" d="M532.6 394.4H82.2c-3.3 0-6.2-1.3-8.7-3.8-2.5-2.2-3.8-5-3.8-8.7v-.3c0-3.5 1.3-6.4 3.8-8.7 2.5-2.5 5.4-3.7 8.7-3.7h450.4c3.3 0 6.2 1.2 8.7 3.7 2.5 2.5 3.7 5.4 3.7 8.7v.2c0 3.5-1.2 6.4-3.7 8.6-2.3 2.7-5.2 3.8-8.7 3.8z" class="st1"/>
  <path id="Computer_0_Layer1_1_FILL" d="M466.4 351V147.7H149V351h317.4z" class="st3"/>
  <path id="Computer_0_Layer1_2_MEMBER_0_FILL" d="M80.5 386.5c1 .8 2 1.2 3 1.2h45.8c1.2 0 2-.4 3-1.2.7-.8 1-1.7 1-3s-.3-2.2-1-2.8c-1-1-1.8-1.3-3-1.3h-46c-1 0-2 .4-3 1.3-.8.8-1 1.8-1 3s.4 2.2 1.2 2.8z" class="st0"/>
  <path id="Computer_0_Layer1_3_MEMBER_0_FILL" d="M529.5 387.3c1.2 0 2-.4 3-1.2.7-.8 1-1.6 1-2.8s-.3-2.3-1-3c-1-.8-1.8-1.2-3-1.2H147.7c-1.2 0-2.2.4-3 1.3-1 .8-1 1.8-1 3s.3 2 1 2.8c.8 1 1.8 1.3 3 1.3h381.8z" class="st0"/>
  <path id="Computer_0_Layer0_0_FILL" d="M307 138.4c0-.5-.3-1-.7-1.2-.3-.3-.7-.5-1.2-.5s-.8.2-1 .5c-.4.4-.6.8-.6 1.2 0 .5.3 1 .6 1.2.3.4.7.6 1 .6s1-.2 1.3-.6c.4-.3.6-.7.6-1.2z" class="st3"/>
  <path id="code_line_0_Layer0_0_FILL" d="M280.5 166.7v-6.2h-119v6.2h119z" class="st4 cl1"/>
  <path id="code_line_0_Layer0_0_FILL_1_" d="M381.5 180.2V174h-204v6.2h204z" class="st4 cl2"/>
  <path id="code_line_0_Layer0_0_FILL_2_" d="M296.5 194.2V188h-119v6.2h119z" class="st4 cl3"/>
  <path id="code_line_0_Layer0_0_FILL_3_" d="M203.5 208.2V202h-42v6.2h42z" class="st4 cl4"/>
  <path id="code_line_0_Layer0_0_FILL_4_" d="M327 221.7v-6.2H161.5v6.2H327z" class="st4 cl5"/>
  <path id="code_line_0_Layer0_0_FILL_5_" d="M296.5 236.2V230h-119v6.2h119z" class="st4 cl6"/>
  <path id="code_line_0_Layer0_0_FILL_6_" d="M247 250.8v-6.3h-69.5v6.3H247z" class="st4 cl7"/>
  <path id="code_line_0_Layer0_0_FILL_7_" d="M182 264.8v-6.3h-20.4v6.3H182z" class="st4 cl8"/>
  <path id="code_line_0_Layer0_0_FILL_8_" d="M266 279.3V273H161.6v6.3H266z" class="st4 cl9"/>
  <path id="code_line_0_Layer0_0_FILL_9_" d="M359.5 293.8v-6.3h-198v6.3h198z" class="st4 cl10"/>
  <path id="code_line_0_Layer0_0_FILL_10_" d="M268 308.8v-6.3H161.3v6.3H268z" class="st4 cl11"/>
  <g class="star1">
    <path d="M527.2 102.8c2.8 0 5-2.3 5-5V85c0-2.7-2.2-5-5-5s-5 2.3-5 5v12.7c0 2.8 2.2 5 5 5zM527.2 110.6c-2.8 0-5 2.3-5 5v12.7c0 2.8 2.2 5 5 5s5-2.2 5-5v-12.6c0-2.8-2.2-5-5-5zM548 101h-12.7c-2.8 0-5 2.4-5 5.2s2.2 5 5 5H548c2.7 0 5-2.2 5-5s-2.3-5-5-5zM518.4 101h-12.6c-2.8 0-5 2.4-5 5.2s2.2 5 5 5h12.6c2.8 0 5-2.2 5-5s-2.2-5-5-5z" class="st5"/>
  </g>
  <g class="star2">
    <path d="M53.6 298.7c2.8 0 5-2.3 5-5V281c0-2.8-2.2-5-5-5s-5 2.2-5 5v12.6c0 2.8 2.2 5 5 5zM53.6 306.4c-2.8 0-5 2.3-5 5v12.7c0 3 2.2 5.2 5 5.2s5-2.3 5-5v-12.7c0-2.8-2.2-5-5-5zM74.3 297H61.7c-2.8 0-5 2.3-5 5s2.2 5.2 5 5.2h12.6c2.8 0 5-2.3 5-5s-2.2-5.2-5-5.2zM45 297H32.2c-2.8 0-5 2.3-5 5s2.2 5.2 5 5.2H45c2.7 0 5-2.3 5-5s-2.3-5.2-5-5.2z" class="st5"/>
  </g>
  <g class="codeBox">
    <path d="M360 215.5h151v108H360z" class="st6"/>
    <path d="M486 241.8H380c-3 0-5.5-2.5-5.5-5.7 0-3 2.5-5.5 5.6-5.5h106c3 0 5.5 2.5 5.5 5.6 0 3.3-2.5 5.8-5.6 5.8zM465.6 260.3h-86c-3 0-5.2-2.3-5.2-5V254c0-2.7 2.3-5 5-5h86.2c2.8 0 5 2.3 5 5v1.2c.2 2.8-2.2 5-5 5zM393 278.5h-13c-3 0-5.5-2.5-5.5-5.6 0-3.2 2.5-5.7 5.6-5.7h13c3.2 0 5.7 2.5 5.7 5.6 0 3-2.5 5.5-5.6 5.5z" class="st7"/>
  </g>
  <path d="M444 276.5h109V311H444z" class="st8 box2"/>
  <path d="M444 230.4h109v34.4H444z" class="st9 box1"/>
</svg>
