<svg xmlns="http://www.w3.org/2000/svg" width="200" height="96" viewBox="0 0 200 96">
  <path fill="#4A4A4A" d="M139.178082,22 C136.456914,22 134.476711,24.1271184 134.476711,26.4972474 C134.476711,28.8689552 136.456914,30.9944948 139.178082,30.9944948 C141.897644,30.9944948 144,29.0583113 144,26.4972474 C144,23.9393389 141.897644,22 139.178082,22 Z M71.5908675,35.4522942 C62.9435622,35.4522942 56,41.3602579 56,50.2064232 C56,59.049431 62.9435622,65 71.5908675,65 C75.5368042,65 79.2593249,63.7849549 82.3598171,60.8183503 L77.8191787,56.4000008 C76.133114,58.1420919 73.9712887,59.3587158 70.8675803,59.3587158 C66.8669963,59.3587158 63.6314884,56.8465701 63.1525117,52.6917446 L85.0118714,52.6917446 L85.0118714,50.7587166 C85.0118714,40.9736519 79.5920378,35.4522942 71.5908675,35.4522942 L71.5908675,35.4522942 Z M99.357078,35.4522942 C93.5691684,35.4522942 87.8246581,38.2563668 87.8246581,44.525689 C87.8246581,55.2464957 103.294976,50.6798167 103.294976,56.4789008 C103.294976,58.7038537 100.601133,59.7137614 98.5132415,59.7137614 C95.4786491,59.7137614 93.5675624,58.2667527 91.7223755,56.281653 L87.1013709,60.8183503 C90.0041639,63.9080369 93.7749039,65 98.1114149,65 C103.95558,65 110.447488,62.6440735 110.447488,55.9660552 C110.447488,45.0101295 94.9771698,49.1270838 94.9771698,44.0917434 C94.9771698,41.9819829 97.2434574,41.0935785 99.1561646,41.0935785 C101.584803,41.0935785 103.372128,42.0750833 104.741553,43.9339456 L109.322374,39.4761461 C106.964458,36.5868628 103.055476,35.4522942 99.357078,35.4522942 L99.357078,35.4522942 Z M129.494063,35.4522942 C125.731361,35.4522942 122.566576,37.4026802 121.015524,40.6201829 L120.895042,40.6201829 L120.895042,36.1623855 L113.74253,36.1623855 L113.74253,64.2899087 L120.895042,64.2899087 L120.895042,49.2201842 C120.895042,47.6990096 121.865855,42.1587154 128.61011,42.1587154 C129.64843,42.1587154 130.656198,42.3386053 131.744357,42.5926609 L132.025635,35.8862378 C131.19786,35.6558529 130.379741,35.4522942 129.494128,35.4522942 L129.494063,35.4522942 Z M135.682191,36.1623855 L135.682191,64.2899087 L142.834703,64.2899087 L142.834703,36.1623855 L135.682191,36.1623855 L135.682191,36.1623855 Z M70.5863008,40.7385328 C75.0610416,40.7385328 77.7966761,43.3074864 77.8593618,47.405506 L63.1525117,47.405506 C63.6909455,43.3627155 66.3526586,40.7385328 70.5863008,40.7385328 Z"/>
</svg>
