<svg xmlns="http://www.w3.org/2000/svg" width="200" height="96" viewBox="0 0 200 96">
  <path fill="#4A4A4A" d="M0,0 L0,2.599865 L18.1023049,2.599865 L18.1023049,0 L0,0 Z M20.667071,0 L20.667071,2.599865 L46.4636714,2.599865 C46.4636705,2.599865 43.8286913,0 40.33875,0 L20.667071,0 Z M51.5241799,0 L51.5241799,2.599865 L67.1307424,2.599865 L66.204375,0 L51.5241799,0 Z M78.3198049,0 L77.3934375,2.599865 L92.8583201,2.599865 L92.8583201,0 L78.3198049,0 Z M0,5.05610995 L0,7.65597419 L18.1023049,7.65597419 L18.1023049,5.05610995 L0,5.05610995 Z M20.667071,5.05979263 L20.667071,7.65597419 L49.4571098,7.65597419 C49.4571098,7.65597533 49.1208563,5.65500667 48.534375,5.05979263 L20.667071,5.05979263 Z M51.5241799,5.05979263 L51.5241799,7.65597419 L68.8417973,7.65597419 L67.9844527,5.05979263 L51.5241799,5.05979263 Z M76.4670701,5.05979263 L75.6097263,7.65597419 L92.8583201,7.65597419 L92.8583201,5.05979263 L76.4670701,5.05979263 Z M5.20218713,10.1122199 L5.20218713,12.7157661 L13.0417964,12.7157661 L13.0417964,10.1122199 L5.20218713,10.1122199 Z M25.8692585,10.1122199 L25.8692585,12.7157661 L33.7088665,12.7157661 L33.7088665,10.1122199 L25.8692585,10.1122199 Z M41.3341411,10.1122199 L41.3341411,12.7157661 L49.17375,12.7157661 C49.1737509,12.7157661 49.6714451,11.3408292 49.6714451,10.1122199 L41.3341411,10.1122199 Z M56.7263674,10.1122199 L56.7263674,12.7157661 L70.6255085,12.7157661 L69.6991411,10.1122199 L56.7263674,10.1122199 Z M74.7596487,10.1122199 L73.8296487,12.7157661 L87.7978125,12.7157661 L87.7978125,10.1122199 L74.7596487,10.1122199 Z M5.20218713,15.172013 L5.20218713,17.7718761 L13.0417964,17.7718761 L13.0417964,15.172013 L5.20218713,15.172013 Z M25.8692585,15.172013 L25.8692585,17.7718761 L45.893321,17.7718761 C45.8933219,17.7718751 47.5683663,16.4378595 48.1020701,15.172013 L25.8692585,15.172013 Z M56.7263674,15.172013 L56.7263674,17.7718761 L64.5659763,17.7718761 L64.5659763,16.3246432 L65.0636714,17.7718761 L79.4241799,17.7718761 L79.9582036,16.3246432 L79.9582036,17.7718761 L87.7978125,17.7718761 L87.7978125,15.172013 L73.0812888,15.172013 L72.3002339,17.3741633 L71.5155473,15.172013 L56.7263674,15.172013 Z M5.20218713,20.2281229 L5.20218713,22.827986 L13.0417964,22.827986 L13.0417964,20.2281229 L5.20218713,20.2281229 Z M25.8692585,20.2281229 L25.8692585,22.827986 L48.1020701,22.827986 C47.568251,21.5662644 45.893321,20.2281229 45.893321,20.2281229 L25.8692585,20.2281229 Z M56.7263674,20.2281229 L56.7263674,22.827986 L64.5659763,22.827986 L64.5659763,20.2281229 L56.7263674,20.2281229 Z M65.9900388,20.2281229 L66.9382036,22.827986 L77.7058598,22.827986 L78.6067973,20.2281229 L65.9900388,20.2281229 Z M79.9582036,20.2281229 L79.9582036,22.827986 L87.7978125,22.827986 L87.7978125,20.2281229 L79.9582036,20.2281229 Z M5.20218713,25.2842329 L5.20218713,27.884096 L13.0417964,27.884096 L13.0417964,25.2842329 L5.20218713,25.2842329 Z M25.8692585,25.2842329 L25.8692585,27.884096 L33.7088665,27.884096 L33.7088665,25.2842329 L25.8692585,25.2842329 Z M41.3341411,25.2842329 L41.3341411,27.884096 L49.6714451,27.884096 C49.6714469,26.6571397 49.17375,25.2842329 49.17375,25.2842329 L41.3341411,25.2842329 Z M56.7263674,25.2842329 L56.7263674,27.884096 L64.5659763,27.884096 L64.5659763,25.2842329 L56.7263674,25.2842329 Z M67.7701165,25.2842329 L68.6892187,27.884096 L75.9076165,27.884096 L76.8339839,25.2842329 L67.7701165,25.2842329 Z M79.9582036,25.2842329 L79.9582036,27.884096 L87.7978125,27.884096 L87.7978125,25.2842329 L79.9582036,25.2842329 Z M0.14167899,30.3403429 L0.14167899,32.9438891 L18.2439839,32.9438891 L18.2439839,30.3403429 L0.14167899,30.3403429 Z M20.667071,30.3403429 L20.667071,32.9438891 L48.534375,32.9438891 C49.1208563,32.3477328 49.4571098,30.3403429 49.4571098,30.3403429 L20.667071,30.3403429 Z M51.6658589,30.3403429 L51.6658589,32.9438891 L64.5659763,32.9438891 L64.5659763,30.3403429 L51.6658589,30.3403429 Z M69.5538277,30.3403429 L70.4983589,32.9438891 L74.1711326,32.9438891 L75.0575388,30.3403429 L69.5538277,30.3403429 Z M79.9582036,30.3403429 L79.9582036,32.9438891 L93,32.9438891 L93,30.3403429 L79.9582036,30.3403429 Z M0.14167899,35.400135 L0.14167899,38 L18.2439839,38 L18.2439839,35.400135 L0.14167899,35.400135 Z M20.667071,35.400135 L20.667071,37.9963178 L40.33875,37.9963178 C43.8286903,37.9963159 46.4636714,35.400135 46.4636714,35.400135 L20.667071,35.400135 Z M51.6658589,35.400135 L51.6658589,38 L64.5659763,38 L64.5659763,35.400135 L51.6658589,35.400135 Z M71.3448049,35.400135 L72.2530085,37.9926337 L72.4092188,37.9963178 L73.3319536,35.400135 L71.3448049,35.400135 Z M79.9582036,35.400135 L79.9582036,38 L93,38 L93,35.400135 L79.9582036,35.400135 Z" transform="translate(53 28)"/>
</svg>
