<svg xmlns="http://www.w3.org/2000/svg" width="200" height="96" viewBox="0 0 200 96">
  <g fill="#4A4A4A" transform="translate(31 26)">
    <path d="M93.99355 40.2252051L90.2965 40.2252051C89.5454 40.2252051 88.96965 39.820812 88.9133 39.0701966L88.8545 37.6229316C86.1959 39.7654444 83.0193 40.9201026 79.6691 40.9201026 73.2011 40.9201026 70.54565 36.8172991 70.54565 30.5688291L70.54565 13.4648205C70.54565 12.4811709 71.1228 12.1338974 72.044 12.1338974L76.08895 12.1338974C77.014 12.1338974 77.53445 12.4215983 77.53445 13.4648205L77.53445 29.353547C77.53445 32.5354274 78.3426 34.7315556 81.80935 34.7315556 84.0007 34.7315556 86.77515 33.5187265 88.508 31.9572222L88.508 13.4648205C88.508 12.4811709 89.0288 12.1338974 89.95 12.1338974L94.05095 12.1338974C94.97635 12.1338974 95.49715 12.4215983 95.49715 13.4648205L95.49715 38.6072821C95.49645 39.820812 95.1475 40.2252051 93.99355 40.2252051zM0 13.2875043C0 12.5954103.3472 12.1324957 1.03915 12.1324957L5.92515 12.1324957C6.6178 12.1324957 7.02205 12.5375897 7.02205 13.2875043L7.02205 38.7796923C7.02205 39.820812 6.55795 40.2252051 5.5783 40.2252051L1.5022 40.2252051C.46585 40.2252051 0 39.820812 0 38.7796923L0 13.2875043zM102.7229 13.2875043C102.7229 12.5954103 103.07185 12.1324957 103.7631 12.1324957L108.64875 12.1324957C109.3428 12.1324957 109.74705 12.5375897 109.74705 13.2875043L109.74705 38.7796923C109.74705 39.820812 109.28435 40.2252051 108.3012 40.2252051L104.2251 40.2252051C103.1884 40.2252051 102.7229 39.820812 102.7229 38.7796923L102.7229 13.2875043zM37.982 40.2252051L33.824 40.2252051C32.78485 40.2252051 32.4387 39.7055214 32.4387 38.7211709L32.4387 22.9915385C32.4387 19.812812 31.57385 17.5567607 28.04865 17.5567607 25.79535 17.5567607 23.0244 18.7734444 21.23415 20.3324957L21.23415 38.7793419C21.23415 39.765094 20.82955 40.2248547 19.84955 40.2248547L15.6317 40.2248547C14.7651 40.2248547 14.24465 39.765094 14.24465 38.8375128L14.24465 13.5850171C14.24465 12.659188 14.6517 12.1395043 15.6898 12.1395043L19.44215 12.1395043C20.2503 12.1395043 20.7732 12.369735 20.8292 13.2370427L20.88625 14.7806752C23.5452 12.6427179 26.89505 11.429188 30.24525 11.429188 36.71395 11.429188 39.3701 15.4762735 39.3701 21.7794103L39.3701 38.7211709C39.36975 39.7055214 39.0243 40.2252051 37.982 40.2252051z"/>
    <g transform="translate(42.7)">
      <path d="M15.86655 4.24192308C15.86655 1.89931624 13.9713 0 11.6312 0 9.2925 0 7.39445 1.89931624 7.39445 4.24192308 7.39445 6.58452991 9.29285 8.48174359 11.6312 8.48174359 13.9713 8.48174359 15.86655 6.58452991 15.86655 4.24192308zM21.8946 12.1324957C22.58725 12.1324957 22.99185 12.3627265 22.99185 13.1154444L22.99185 17.1877607C22.99185 17.8812564 22.53055 18.2863504 21.83615 18.2863504L15.1424 18.2863504 15.1424 38.7793419C15.1424 39.8204615 14.68075 40.2248547 13.6402 40.2248547L9.62115 40.2248547C8.5813 40.2248547 8.12035 39.8204615 8.12035 38.7793419L8.12035 18.2863504 1.42485 18.2863504C.7322 18.2863504.2702 17.8812564.2702 17.1877607L.2702 13.1154444C.2702 12.3627265.6741 12.1324957 1.3678 12.1324957L21.8946 12.1324957z"/>
    </g>
    <g transform="translate(114.45)">
      <path d="M15.7899 4.24192308C15.7899 1.89931624 13.8929 0 11.55315 0 9.21445 0 7.31745 1.89931624 7.31745 4.24192308 7.31745 6.58452991 9.21445 8.48174359 11.55315 8.48174359 13.8929 8.48174359 15.7899 6.58452991 15.7899 4.24192308zM21.8176 12.1324957C22.50885 12.1324957 22.91275 12.3627265 22.91275 13.1154444L22.91275 17.1877607C22.91275 17.8812564 22.4525 18.2863504 21.7574 18.2863504L15.06365 18.2863504 15.06365 38.7793419C15.06365 39.8204615 14.6034 40.2248547 13.56285 40.2248547L9.54275 40.2248547C8.50255 40.2248547 8.04195 39.8204615 8.04195 38.7793419L8.04055 18.2863504 1.34855 18.2863504C.65415 18.2863504.1918 17.8812564.1918 17.1877607L.1918 13.1154444C.1918 12.3627265.59745 12.1324957 1.28835 12.1324957L21.8176 12.1324957z"/>
    </g>
  </g>
</svg>
