<svg xmlns="http://www.w3.org/2000/svg" width="200" height="96" viewBox="0 0 200 96">
  <g fill="#4A4A4A" fill-rule="evenodd" transform="translate(2 30)">
    <path d="M24.7430142 16.9107692L24.7430142 5.86338462C24.7430142 4.42615385 23.9931132 2.83846154 20.3495425 2.83846154L20.3495425 1.89784615 34.2138821 1.89784615 34.2138821 2.83846154C30.5749575 2.83846154 29.8287736 4.42615385 29.8287736 5.86338462L29.8287736 30.7338462C29.8287736 32.1692308 30.5749575 33.7550769 34.2138821 33.7550769L34.2138821 34.6966154 20.3495425 34.6966154 20.3495425 33.7550769C23.9931132 33.7550769 24.7430142 32.1692308 24.7430142 30.7338462L24.7430142 18.9415385 9.62883962 18.9415385 9.62883962 30.7338462C9.62883962 32.1692308 10.3750236 33.7550769 14.0176651 33.7550769L14.0176651 34.6966154.152396226 34.6966154.152396226 33.7550769C3.79317925 33.7550769 4.5412217 32.1692308 4.5412217 30.7338462L4.5412217 5.86338462C4.5412217 4.42615385 3.79317925 2.83846154.152396226 2.83846154L.152396226 1.89784615 14.0176651 1.89784615 14.0176651 2.83846154C10.3750236 2.83846154 9.62883962 4.42615385 9.62883962 5.86338462L9.62883962 16.9107692 24.7430142 16.9107692M35.3847311 24.7393846L36.5314198 24.7393846C38.0795425 29.3473846 41.5697877 33.5123077 46.8571934 33.5123077 50.8966226 33.5123077 53.6378962 30.0415385 52.4939953 26.1756923 50.4459387 19.2396923 36.8334245 18.9415385 36.8334245 9.48 36.8334245 4.57384615 40.771566 1.20369231 45.6603255 1.20369231 50.9458726 1.20369231 53.3386792 4.87015385 54.5374057 1.20369231L55.5828066 1.20369231 56.6802453 11.76 55.4359858 11.76C54.2874387 7.15107692 50.9941934 3.23723077 46.3572594 3.23723077 43.3641604 3.23723077 41.1209623 4.87015385 41.1209623 7.99569231 41.1209623 10.8664615 44.2627406 12.8972308 46.4065094 14.1849231 53.1890708 18.2501538 57.7767547 20.3796923 57.7767547 26.3243077 57.7767547 30.7846154 54.0356132 35.3907692 47.2576981 35.3907692 42.0697217 35.3907692 38.4772594 31.7778462 37.9763962 35.3907692L36.880816 35.3907692 35.3847311 24.7393846M74.265283 16.5646154C79.3017925 16.5646154 82.2447123 14.4323077 82.2447123 10.4224615 82.2447123 6.65261538 79.8519057 4.62184615 76.3607311 3.98123077 71.7711887 3.68123077 70.173816 3.58523077 70.173816 5.31692308L70.173816 16.5646154 74.265283 16.5646154 74.265283 16.5646154zM70.173816 30.2381538C70.173816 31.9744615 70.6245 32.8643077 74.265283 32.8643077 79.4514009 32.8643077 83.2938302 31.3292308 83.2938302 25.5323077 83.2938302 19.6366154 77.3568821 18.5446154 72.6688396 18.5446154L70.173816 18.5446154 70.173816 30.2381538zM65.0880566 5.86338462C65.0880566 4.42615385 64.3390849 2.83846154 60.3005849 2.83846154L60.3005849 1.89784615 73.6649906 1.89784615C81.3470613 1.89784615 87.3332594 3.92953846 87.3332594 10.2729231 87.3332594 14.4323077 84.5371604 16.5646154 80.7012358 17.4073846L80.7012358 17.5070769C84.9869151 18.2972308 89.0263443 20.9224615 89.0263443 25.6818462 89.0263443 31.6283077 83.8420849 34.6966154 76.0113349 34.6966154L60.3005849 34.6966154 60.3005849 33.7550769C64.3390849 33.7550769 65.0880566 32.1692308 65.0880566 30.7338462L65.0880566 5.86338462 65.0880566 5.86338462zM118.961981 12.1006154L117.765113 12.1006154C116.321066 6.64984615 112.680283 2.93446154 106.992373 2.93446154 98.7648349 2.93446154 95.2234811 9.52246154 95.2234811 18.4403077 95.2234811 25.3772308 98.8633349 32.856 107.04441 32.856 111.932241 32.856 115.273807 31.2710769 118.714802 27.9027692L119.562274 28.8950769C116.520854 32.6104615 111.382127 35.0898462 106.594656 35.0898462 96.8701038 35.0898462 89.438 28.8950769 89.438 18.0433846 89.438 8.18492308 96.4695991.899076923 106.497085.899076923 113.327967.899076923 115.82392 4.96615385 117.471472.951692308L118.515014.951692308 118.961981 12.1006154"/>
    <polyline points="145.901 .98 179.446 .98 162.674 17.641 145.901 .98"/>
    <polyline points="145.901 34.302 179.446 34.302 162.674 17.641 145.901 34.302"/>
    <polyline points="145.901 .98 145.901 34.302 129.127 17.641 145.901 .98"/>
    <polyline points="179.446 .98 179.446 34.302 196.219 17.641 179.446 .98"/>
  </g>
</svg>
