<svg xmlns="http://www.w3.org/2000/svg" width="200" height="96" viewBox="0 0 200 96">
  <path fill="#4A4A4A" d="M177.340741,34.7605634 C176.956173,34.8732394 176.626543,34.9295775 176.296914,34.9295775 C175.14321,34.9295775 174.593827,34.4225352 174.593827,32.9577465 L174.593827,21.971831 C174.593827,16.1690141 170.088889,13.3521127 164.759877,13.3521127 C160.694444,13.3521127 158.496914,13.8591549 154.15679,15.6619718 L153.277778,21.5211268 L158.93642,22.1408451 L159.760494,19.2676056 C160.914198,18.6478873 162.067901,18.5352113 163.551235,18.5352113 C167.561728,18.5352113 167.616667,21.6338028 167.616667,24.2253521 L167.616667,25.0704225 C166.353086,24.9014085 164.924691,24.8450704 163.551235,24.8450704 C157.892593,24.8450704 152.014198,26.3098592 152.014198,32.5633803 C152.014198,37.8591549 156.07963,39.8309859 159.650617,39.8309859 C163.661111,39.8309859 166.188272,37.3521127 167.616667,34.7605634 C167.946296,37.8591549 169.759259,39.8309859 173.055556,39.8309859 C174.593827,39.8309859 176.187037,39.3802817 177.505556,38.6478873 L177.340741,34.7605634 Z M162.177778,34.5915493 C160.035185,34.5915493 159.266049,33.2957746 159.266049,31.6619718 C159.266049,28.9014085 161.46358,28.1690141 163.990741,28.1690141 C165.144444,28.1690141 166.408025,28.3380282 167.561728,28.5070423 C167.396914,32.7323944 164.704938,34.5915493 162.177778,34.5915493 Z M152.673457,0.507042254 L141.960494,39.2112676 L134.983333,39.2112676 L145.696296,0.507042254 L152.673457,0.507042254 Z M138.27963,0.507042254 L127.566667,39.2112676 L120.589506,39.2112676 L131.302469,0.507042254 L138.27963,0.507042254 Z M108.612963,13.8591549 L116.02963,13.8591549 L116.02963,22.9859155 L108.612963,22.9859155 L108.612963,13.8591549 Z M108.612963,30.1408451 L116.02963,30.1408451 L116.02963,39.2676056 L108.612963,39.2676056 L108.612963,30.1408451 Z M97.7901235,29.8028169 L103.393827,30.3661972 L101.855556,39.2676056 L80.2648148,39.2676056 L79.5506173,35.4366197 L93.1753086,19.3802817 L85.4290123,19.3802817 L84.3302469,23.3239437 L79.2209877,22.7605634 L80.1,13.8591549 L101.800617,13.8591549 L102.35,17.6901408 L88.6154321,33.7464789 L96.6364198,33.7464789 L97.7901235,29.8028169 Z M62.3549383,13.3521127 C53.4549383,13.3521127 49.0598765,19.4929577 49.0598765,26.9295775 C49.0598765,35.0422535 54.3339506,39.8309859 61.9703704,39.8309859 C69.8814815,39.8309859 75.5950617,34.7042254 75.5950617,26.5915493 C75.5950617,19.4929577 71.2549383,13.3521127 62.3549383,13.3521127 Z M62.1901235,34.1971831 C58.3444444,34.1971831 56.3666667,30.8169014 56.3666667,26.4225352 C56.3666667,21.6338028 58.6191358,18.8732394 62.2450617,18.8732394 C65.5962963,18.8732394 68.2882716,21.1830986 68.2882716,26.3098592 C68.2882716,31.2112676 65.8709877,34.1971831 62.1901235,34.1971831 Z M42.687037,33.6901408 L45.9833333,33.6901408 L45.9833333,39.2112676 L35.6549383,39.2112676 L35.6549383,24.9577465 C35.6549383,20.5633803 34.2265432,18.8732394 31.4246914,18.8732394 C28.0185185,18.8732394 26.6450617,21.3521127 26.6450617,24.9014085 L26.6450617,33.7464789 L29.941358,33.7464789 L29.941358,39.2676056 L19.5580247,39.2676056 L19.5580247,24.9577465 C19.5580247,20.5633803 18.1296296,18.8732394 15.3277778,18.8732394 C11.9216049,18.8732394 10.5481481,21.3521127 10.5481481,24.9014085 L10.5481481,33.7464789 L15.2728395,33.7464789 L15.2728395,39.2676056 L0.219753086,39.2676056 L0.219753086,33.7464789 L3.51604938,33.7464789 L3.51604938,19.3802817 L0.219753086,19.3802817 L0.219753086,13.8591549 L10.6030864,13.8591549 L10.6030864,17.6901408 C12.0864198,14.9859155 14.6685185,13.3521127 18.1296296,13.3521127 C21.7006173,13.3521127 24.9969136,15.0985915 26.2055556,18.8169014 C27.5790123,15.4366197 30.3808642,13.3521127 34.2814815,13.3521127 C38.7314815,13.3521127 42.7969136,16.1126761 42.7969136,22.1408451 L42.7969136,33.6901408 L42.687037,33.6901408 Z" transform="translate(11 26)"/>
</svg>
