<svg xmlns="http://www.w3.org/2000/svg" width="504" height="330" xmlns:xlink="http://www.w3.org/1999/xlink"><defs><path id="a" d="M0 0h150v150H0z"/><path id="b" d="M0 174h150v150H0z"/><path id="c" d="M174 0h150v150H174z"/><path id="d" d="M174 174h150v150H174z"/><path id="e" d="M348 0h150v150H348z"/><path id="f" d="M5.73 9.3003C4.842 5.7263 2.8697 2.5807.1834.2303 1.4224.333 2.752.5463 4.122.8818c2.359.7244 4.397 1.9292 5.9435 3.4297 2.0484 2.8642 3.442 6.229 3.9546 9.877-2.076-1.6157-5.081-3.6633-8.29-4.888z"/><path id="h" d="M0 3.619V.364h6.769v3.255z"/><path id="k" d="M0 0h150v150H0z"/><filter id="j" width="104.7%" height="104.7%" x="-2.3%" y="-1.7%" filterUnits="objectBoundingBox"><feOffset dy="1" in="SourceAlpha" result="shadowOffsetOuter1"/><feGaussianBlur in="shadowOffsetOuter1" result="shadowBlurOuter1" stdDeviation="1"/><feComposite in="shadowBlurOuter1" in2="SourceAlpha" operator="out" result="shadowBlurOuter1"/><feColorMatrix in="shadowBlurOuter1" values="0 0 0 0 0 0 0 0 0 0 0 0 0 0 0 0 0 0 0.2 0"/></filter></defs><g fill="none" fill-rule="evenodd" transform="translate(3 3)"><use fill="#FFF" xlink:href="#a"/><path stroke="#E0E6EB" d="M.5.5h149v149H.5z"/><path stroke="#E0E6EB" stroke-opacity=".236" stroke-width="3" d="M-1.5-1.5h153v153h-153z"/><path stroke="#E0E6EB" stroke-opacity=".629" d="M-.5-.5h151v151H-.5z"/><use fill="#FFF" xlink:href="#b"/><path stroke="#E0E6EB" d="M.5 174.5h149v149H.5z"/><path stroke="#E0E6EB" stroke-opacity=".236" stroke-width="3" d="M-1.5 172.5h153v153h-153z"/><path stroke="#E0E6EB" stroke-opacity=".629" d="M-.5 173.5h151v151H-.5z"/><use fill="#FFF" xlink:href="#c"/><path stroke="#E0E6EB" d="M174.5.5h149v149h-149z"/><path stroke="#E0E6EB" stroke-opacity=".236" stroke-width="3" d="M172.5-1.5h153v153h-153z"/><path stroke="#E0E6EB" stroke-opacity=".629" d="M173.5-.5h151v151h-151z"/><use fill="#FFF" xlink:href="#d"/><path stroke="#E0E6EB" d="M174.5 174.5h149v149h-149z"/><path stroke="#E0E6EB" stroke-opacity=".236" stroke-width="3" d="M172.5 172.5h153v153h-153z"/><path stroke="#E0E6EB" stroke-opacity=".629" d="M173.5 173.5h151v151h-151z"/><use fill="#FFF" xlink:href="#e"/><path stroke="#E0E6EB" d="M348.5.5h149v149h-149z"/><path stroke="#E0E6EB" stroke-opacity=".236" stroke-width="3" d="M346.5-1.5h153v153h-153z"/><path stroke="#E0E6EB" stroke-opacity=".629" d="M347.5-.5h151v151h-151z"/><path fill="#F15A24" d="M225.1763 222.652c8.6642 0 16.249 4.6176 20.4313 11.5252-3.4522-3.1332-8.0356-5.0426-13.0648-5.0426-1.8925 0-3.7202.2754-5.4496.7795 4.3547 2.111 10.332 3.719 18.5383 4.282 0 0-.4062-7.815-10.401-11.895-13.9586-5.697-15.9352-4.563-19.471-10.456 0 0-1.1504 5.882 3.169 11.64 1.9918-.539 4.085-.832 6.2478-.832"/><path fill="#ED1C24" d="M235.2304 222.3007c-4.7798-1.9515-8.1538-3.1014-10.6674-4.0062.5626 1.4344 1.3947 2.9293 2.5847 4.441 7.8344.6413 14.5986 5.0635 18.4598 11.4415-2.9238-2.653-6.6605-4.4234-10.7908-4.905 2.7993 1.7124 6.2515 3.3673 10.5063 4.899.1042.0075.204.017.309.024 0 0-.4068-7.8143-10.4016-11.8943"/><path fill="#C1272D" d="M245.617 234.194c.0017.0016.0025.0036.004.0052.0103.0012.021.002.031.003.006-.0003.012-.001.0178-.0015.1532-.8505 1.0894-7.5998-6.5143-13.505-11.3554-8.819-13.574-9.6374-14.1134-14.303 0 0-3.059 5.3205-.479 11.9016 2.514.9052 5.888 2.055 10.668 4.0066 9.995 4.079 10.401 11.894 10.401 11.894l-.014-.001"/><g transform="translate(291.577 230.672)"><mask id="g" fill="#fff"><use xlink:href="#f"/></mask><path d="M-4.262.4314c.0225-.024.0507-.0393.0826-.0452 5.024-.961 14.9014 1.0132 21.0696 7.8666 6.188 6.8754-.033 8.3487-.033 8.3487S7.0027 7.0742-.953 8.351C-5.7565 9.1218-4.5484.735-4.262.4314" mask="url(#g)"/></g><path fill="#2AAAE9" d="M258.866 285.4475c1.115-3.2444 4.7146-8.2504 8.5778-5.9588 0 0 3.143 1.768 3.798-3.2086 0 0 2.3572 11.705-8.9872 11.312 0 0 2.5538-1.866 2.5294-3.781-.0004-.024-2.701 1.646-5.918 1.637"/><path fill="#2AAAE9" d="M263.3938 278.2786c1.1228-.5712 2.184-1.1472 4.2466-.2306 1.6002.7115 3.6156-2.068 1.8724-4.5507 0 0 .1124 2.563-1.953 2.5415-2.0256-.0212-3.24.89-4.166 2.2398"/><path fill="#26A868" d="M274.7892 241.0392c-2.7144 3.7017-6.6982 6.8015-7.1642 7.5622-.4667.761.7877 3.2125 2.6516 3.3893 1.8638.1768.429-.7127.2726-1.5735-.1564-.8608.555.5512 2.7714.2197 2.2158-.332-.8023-1.154-.5976-2.276.205-1.123 2.4924-3.245 3.401-5.384.9097-2.14 2.4714-.006 1.6734 1.669-.3155.661 2.5294-1.861 1.0942-3.788-1.4352-1.927-2.5195-1.979-4.1024.179m-7.748 8.095c-.3998.381-1.5777 1.244-1.5777 1.244s1.1523 1.604 2.6366 1.571c0 0 .32-.152-.139-.622s-1.024-1.911-.919-2.194"/><path fill="#FECD00" d="M227.1396 222.735c1.0608 1.5292 4.1044 4.1697 7.687 6.5384 4.1265.4828 7.8596 2.2527 10.7815 4.904-3.862-6.3805-10.63-10.8035-18.468-11.4423"/><path fill="#FF8431" d="M227.1396 222.735c-.6474-.0526-1.3016-.0828-1.9628-.0828-2.1628 0-4.256.2927-6.248.832 1.717 2.289 4.3013 4.5575 8.165 6.43 1.7293-.504 3.557-.7795 5.4495-.7795.7732 0 1.5338.0507 2.2834.1387-3.5827-2.3687-6.6263-5.0092-7.687-6.5383"/><path fill="#FFFB69" d="M240.3843 228.169c.1253 0-2.914-2.75-6.417-3.8305 1.548 2.9277 2.8744 3.8305 6.417 3.8305"/><path fill="#C1272D" d="M233.636 215.7032c1.5223.884 2.8852 1.993 3.4376 2.4064.275.2058-.491-1.8662-1.375-2.259-.884-.393-2.0627-.1474-2.0627-.1474m4.238 3.003c1.514.899 3.054 2.1824 3.413 2.4405.279.2-.473-1.8713-1.353-2.2728-.88-.402-2.061-.168-2.061-.168m3.994 2.937c1.245 1.196 1.626 1.982 1.847 2.305.137.199.037-1.358-.483-1.798-.52-.44-1.365-.508-1.365-.508"/><path fill="#26A868" d="M223.474 259.4684c-.1072-.343 1.2325-.776 1.5892-.796.3568-.02 1.6874.4806 1.8733.6236-.4094.205-1.9483.5653-2.5702.5406-.426-.0456-.8923-.3682-.8923-.3682m4.8243-1.139c-.1143-.2657.921-.7234 1.2046-.7694.284-.046 1.39.2436 1.55.3422-.31.1984-1.511.6153-2.011.6475-.345-.0012-.745-.2204-.745-.2204m4.038-1.483c-.118-.208.693-.6768.922-.7397.229-.0628 1.164.077 1.305.1434-.238.191-1.188.64-1.596.711-.284.03-.632-.1146-.632-.1146m3.21-1.4583c-.122-.181.584-.666.789-.74.204-.073 1.067-.012 1.201.039-.203.191-1.038.669-1.406.762-.257.048-.585-.06-.585-.06m2.998-1.639c-.115-.151.475-.608.649-.681.174-.074.927-.063 1.045-.026-.167.176-.869.632-1.184.732-.22.054-.511-.023-.511-.023m-19.904 6.106c-.056-.381 1.435-.611 1.816-.572.381.039 1.703.794 1.876.977-.468.148-2.157.268-2.811.137-.443-.121-.882-.541-.882-.541"/><path fill="#C1272D" d="M219.5537 214.7375c1.0435 1.1908 3.5116 1.9644 3.5116 1.9644s-.5898-1.371-.4915-3.978c.0035-.094-3.02-.049-3.5355-2.53-.1034-.496-.528 3.352.5154 4.543"/><path fill="#F15A24" d="M209.2863 271.9342c.129-.8663.519-1.5966 1.179-2.041.0315-.0212.0657-.036.098-.0558-.2425-.0628-.4948-.0915-.751-.13-3.5987-.537-4.5117 1.6065-4.7015 4.0132-.011.1383-.0137.2758-.0118.4122.8117-1.43 2.3962-2.342 4.1437-2.2045.015.0012.029.0044.0436.006"/><path fill="#F15A24" d="M213.6678 271.1497c-3.576-2.1715-5.587-2.3298-6.384 3.7527 0 0 3.7663-2.9768 5.5425-1.009 1.9317 2.141 4.563.1675 3.1807-1.0795-1.3817-1.247-2.3392-1.665-2.3392-1.665"/><path fill="#F15A24" d="M212.1853 271.8552c-2.0296 1.352-2.0264 4.5307-2.0264 4.5307s3.702-2.004 3.413-3.252c-.289-1.248-1.387-1.28-1.387-1.28"/><g transform="translate(191 243.244)"><mask id="i" fill="#fff"><use xlink:href="#h"/></mask><path fill="#F15A24" d="M4.3345 3.619c.7567-.4413 1.5704-.5937 2.3302-.3564.0358.011.0688.0283.1045.0408-.103-.2282-.2377-.4427-.3685-.6667C4.569-.5075 2.3257.1215.3292 1.478.214 1.5564.1048 1.64 0 1.727c1.6237-.261 3.3264.4047 4.3114 1.8544.0082.0126.015.0255.023.0377" mask="url(#i)"/></g><path fill="#F15A24" d="M199.1724 250.601c-1.3008-5.162-2.349-7.155-7.3413-3.5905 0 0 4.273-1.2277 4.761 4.8466.231 2.874 2.989 3.451 2.959 1.59-.03-1.861-.378-2.846-.378-2.846"/><path fill="#F15A24" d="M197.351 247.837c-2.373-.5625-4.6956 1.6077-4.6956 1.6077s3.6448-.126 4.0867 2.084c.252 1.256.609-3.6916.609-3.6916"/><path fill="#2BBB73" d="M270.9973 229.0904c.016-.012.0334-.0225.05-.0345.1503-.115.3004-.23.45-.339-.166.122-.333.245-.5.373"/><path fill="#26A868" d="M291.663 230.8317c.0058.0004.0117.0004.0176.0008-.1446-.125-.293-.2452-.4416-.3658l-.045-.039h-.002c-3.0418-2.4475-6.9038-3.9177-11.112-3.9177-3.3 0-6.387.9044-9.034 2.4732-13.5167 8.27-30.0718 32.3437-52.9188 32.6517h.0004c3.5583 3.927 8.6987 6.394 14.4154 6.394 1.2117 0 3.5426-.215 4.7755-.434 15.0276-6.193 29.4698-21.003 36.0183-28.181 2.4126-2.517 5.178-4.724 8.312-6.216 3.1187-1.497 6.5977-2.234 10.0083-1.975l.511.041s-.255-.219-.504-.434"/><path fill="#65DADD" d="M275.3013 226.9087c-1.4014.4797-2.838 1.2034-4.307 2.1054 2.6574-1.586 5.7658-2.504 9.0856-2.504 4.227 0 8.104 1.484 11.152 3.951.175.152.929.805.931.805 1.521.194 3.204.422 4.734.965 1.735.618 3.388 1.529 4.775 2.781 0 0-9.544-13.865-26.372-8.103"/><path fill="#C1272D" d="M227.7385 231.4594c-3.3394.7366-2.8236 3.3886-2.8236 3.3886s1.055-1.277 6.875-1.9644c0 0-2.501-.6632-4.052-1.4242"/><path fill="#FBA9FF" d="M252.6882 266.7754c-.015.004-.029.009-.0436.013-.7378.2396-1.437.5068-2.0944.8062-2.5832 1.3032-4.6533 3.612-5.567 6.5972-.314 1.0238-.4676 2.0587-.4814 3.0782.0114 2.0488.5222 3.49.5394 3.5434-.0585-.738.0193-1.4777.1505-2.1974.1375-.7202.3552-1.4218.6502-2.0846.294-.6624.666-1.2847 1.098-1.856.253-.3296.58-.7543.848-1.0128.029-.187.204-.7775.303-1.1017.831-2.504 2.496-4.507 4.596-5.786"/><path fill="#2AAAE9" d="M255.133 286.2236c-5.388-1.6493-8.5306-7.1496-7.347-12.5583-.2674.259-.593.6812-.8453 1.01-.4318.5713-.804 1.1936-1.0985 1.856-.295.6628-.513 1.3645-.6506 2.0846-.131.718-.2087 1.456-.1505 2.194 1.072 3.297 3.677 6.037 7.244 7.129 3.758 1.151 7.658.188 10.427-2.205-2.299 1.043-4.973 1.286-7.578.489"/><path fill="#E91B22" d="M213.5155 246.947l.1324-1.2003c.028-.403.132-.7936.201-1.1908.074-.397.148-.793.27-1.178.392-1.567 1.034-3.068 1.827-4.478.378-.718.855-1.376 1.317-2.044l.761-.951c.252-.319.549-.598.822-.9 1.135-1.161 2.392-2.22 3.791-3.064 1.395-.848 2.892-1.528 4.454-2.029-.291.083-.577.18-.864.276.285-.098.572-.192.863-.276-3.864-1.873-6.448-4.141-8.165-6.43-10.151 2.747-17.62 12.016-17.62 23.035 0 4.652 1.336 8.99 3.638 12.661 4.335 1.665 8.467 2.417 12.413 2.455.129.008.43.005.734-.001h.033c0-.001-.001-.001-.001-.001.396-.009.785-.023.785-.023l-.348-.373c-2.171-2.324-3.749-5.211-4.527-8.318-.377-1.555-.591-3.16-.555-4.768l.034-1.207z"/><path fill="#FECD00" d="M232.1124 267.8547c-1.7232-.113-3.4153-.539-5.0395-1.1107-1.623-.5822-3.184-1.3326-4.633-2.244-1.301-.8224-2.502-1.781-3.529-2.889-.199.0083-.786.0182-1.18.0248-4.058.006-8.313-.737-12.785-2.4555.09.1438.181.2868.275.4287 1.538 2.1482 3.162 3.9346 4.856 5.3934 4.114 3.3646 9.37 5.3844 15.098 5.3844.339 0 .687-.0106 1.039-.026 3.664-.2368 7.401-1.2395 11.103-2.765-1.726.27-3.477.3512-5.206.259"/><path fill="#C83AD7" d="M305.8146 247.993c0-4.851-1.547-9.3377-4.1684-13.0044-1.3818-1.24-3.0244-2.1443-4.748-2.758-1.5298-.5434-3.2137-.7708-4.7345-.965-.0008 0-.0515-.044-.129-.1103 3.5564 3.2456 5.7943 7.9102 5.7943 13.104 0 5.9596-2.1636 12.7698-9.1698 16.437-10.201 5.3387-25.8557 2.799-36.014 6.0946.0142-.005.0283-.01.043-.014-2.036 1.24-3.6598 3.162-4.5155 5.559l-.0157.01c-.22.573-.3685 1.314-.3685 1.314l.2785-.246c.623-.55 1.326-1.014 2.0638-1.417.3748-.192.75-.384 1.145-.539.3845-.177.7896-.305 1.1895-.448 1.6132-.539 3.31-.844 5.0163-1.019 3.422-.333 6.89-.168 10.3217.214 3.4424.397 6.9028.753 10.3755.798 3.4656.044 6.9685-.23 10.3-1.21 5.575-1.209 10.0813-4.417 13.2585-8.929.0004 0 .0012-.001.0012-.001 2.565-3.643 4.076-8.081 4.076-12.875"/><g fill-rule="nonzero"><path fill="#DD0031" d="M75 31L34.393 45.608l6.193 54.164L75 119l34.414-19.228 6.193-54.164"/><path fill="#C3002F" d="M75 31v9.768-.044V119l34.414-19.228 6.193-54.164"/><path fill="#FFF" d="M75 40.724l-25.385 57.42h9.4648l5.1032-12.848h21.5468l5.1032 12.848h9.465L75 40.724zm7.415 36.652h-14.83L75 59.38l7.415 17.996z"/></g><g fill="#21609B"><path d="M288.6913 95.292l-.37.958c-6.3015 12.2696-17.466 19.7982-33.391 20.1302-7.445.1534-14.5386-1.7565-19.1722-3.8342-10-4.493-18.411-12.8253-23.005-21.728-6.589-12.762-7.777-30.515 5.924-43.7753.211 0-1.662 2.8753-1.45 2.8753l-.377 1.227c-9.873 30.911 20.545 57.4007 50.115 54.3712 7.107-.728 16.169-4.62 21.728-10.2243m1.17-38.587c-1.156 2.652-7.815 7.662-10.755 8.288-11.643 2.48-19.101-3.041-23.006-9.324-.581-.939-1.654-3.502-1.846-4.154-1.515-5.151-.818-12.941 3.701-16.974-1.361 3.834-1.56 8.288-.843 11.183.434 1.751 1.756 4.806 3.08 6.729 2.409 3.502 3.936 4.353 7.03 6.212 1.393.837 2.888 1.508 3.534 1.693 2.933.862 9.126 3.137 19.108-3.656"/><path d="M270.7976 82.51c7.4393.0513 15.2098-3.4257 19.811-8.3073-4.0256 10.219-15.6817 16.7876-31.3137 14.6982-13.088-1.752-25.556-14.922-26.841-28.119-.939-9.605 2.409-15.337 7.924-22.29-1.917 3.636-2.634 6.441-2.812 8.23-2.096 20.776 16.596 35.679 33.23 35.787"/></g><g transform="translate(348 174)"><use fill="#000" filter="url(#j)" xlink:href="#k"/><use fill="#FFF" xlink:href="#k"/><path stroke="#E0E6EB" d="M.5.5h149v149H.5z"/><g transform="translate(25 32)"><ellipse cx="48.915" cy="42.933" fill="#00D8FF" fill-rule="nonzero" rx="9.037" ry="8.988"/><path stroke="#00D8FF" stroke-width="4.32" d="M48.9152 24.6583c12.134 0 23.406 1.7317 31.9053 4.6417 10.2402 3.506 16.5364 8.821 16.5364 13.6333 0 5.015-6.673 10.661-17.67 14.2846-8.314 2.739-19.254 4.169-30.773 4.169-11.81 0-22.992-1.343-31.398-4.2C6.88 53.571.473 47.852.473 42.933c0-4.7732 6.0118-10.047 16.108-13.548 8.531-2.958 20.081-4.727 32.334-4.727z"/><path stroke="#00D8FF" stroke-width="4.32" d="M32.9194 33.8485c6.0617-10.454 13.2013-19.3005 19.982-25.1693 8.1695-7.071 15.944-9.8404 20.1358-7.4363 4.3682 2.505 5.9524 11.075 3.615 22.359-1.7672 8.531-5.987 18.671-11.7413 28.595-5.9 10.175-12.656 19.138-19.344 24.953-8.464 7.358-16.646 10.02-20.931 7.563-4.158-2.385-5.748-10.199-3.754-20.646 1.685-8.828 5.914-19.663 12.035-30.219z"/><path stroke="#00D8FF" stroke-width="4.32" d="M32.9347 52.224c-6.0793-10.444-10.22-21.014-11.946-29.7875-2.0796-10.5706-.6092-18.653 3.5785-21.064 4.364-2.5125 12.6202.402 21.2826 8.0518 6.5494 5.7835 13.2746 14.4833 19.0457 24.3977 5.9167 10.1647 10.3514 20.4625 12.0763 29.1293 2.1828 10.9673.416 19.347-3.8647 21.8117-4.153 2.3915-11.754-.1404-19.859-7.077C46.4 71.8255 39.074 62.77 32.935 52.224z"/></g></g><path fill="#E14C31" d="M447.0074 81.039s-.5817-2.0622 1.5862-6.0278c2.168-3.9656 3.86-1.7978 3.86-1.7978s1.8505 2.0093-.2645 5.0232c-2.115 3.0138-5.181 2.8023-5.181 2.8023m-16.655 2.855c-2.485 6.503-8.513 3.86-8.513 3.86s-.687-2.327 1.269-8.831c1.957-6.504 6.557-3.966 6.557-3.966s3.173 2.432.688 8.936m-4.494-27.23s3.754-9.782 4.653-5.023c.899 4.759-7.878 18.929-7.878 18.929.106-3.173 3.226-13.906 3.226-13.906m-53.67 24.375c.159-6.293 4.283-9.042 5.711-7.667 1.428 1.374.899 4.335-1.797 6.186-2.696 1.851-3.9122 1.48-3.9122 1.48m113.734-1.044c-.211-2.115-2.115-1.328-2.115-1.328s-3.066 2.376-5.763 2.112c-2.696-.265-1.85-6.294-1.85-6.294s.582-5.526-1.004-5.989c-1.586-.463-3.542 1.44-3.542 1.44s-2.432 2.697-3.595 6.134l-.317.106s.37-6.028-.053-7.403c-.317-.688-3.2252-.635-3.701.581-.476 1.216-2.8024 9.676-2.961 13.219 0 0-4.5473 3.86-8.513 4.494-3.966.634-4.9174-1.851-4.9174-1.851S458.382 82.2 458.012 73.5812c-.3703-8.618-8.698-5.432-9.641-4.723-.912.6853-5.779 3.622-7.199 11.751-.049.278-.133 1.485-.133 1.485s-4.177 2.803-6.504 3.543c0 0 6.5037-10.945-1.428-15.915-3.595-2.168-6.4504 2.3792-6.4504 2.3792s10.7333-11.95 8.354-22.049c-1.133-4.809-3.537-5.326-5.7447-4.548-3.35 1.322-4.619 3.2784-4.619 3.2784s-4.336 6.292-5.3407 15.651c-1.005 9.359-2.4855 20.674-2.4855 20.674s-2.062 2.009-3.9656 2.115c-1.904.106-1.058-5.6578-1.058-5.6578s1.4807-8.777 1.375-10.258c-.106-1.4805-.2115-2.2736-1.9564-2.802-1.745-.529-3.649 1.692-3.649 1.692s-5.023 7.614-5.446 8.777l-.2646.476-.2644-.3178s3.543-10.364.159-10.522c-3.384-.159-5.6044 3.701-5.6044 3.701s-3.86 6.4504-4.018 7.191l-.2644-.3176s1.5863-7.508 1.269-9.359c-.317-1.85-2.062-1.48-2.062-1.48s-2.221-.265-2.8025 1.163c-.5815 1.427-2.6965 10.892-2.961 13.906 0 0-5.552 3.9653-9.2 4.018-3.6487.053-3.2786-2.313-3.2786-2.313s13.377-4.58 9.729-13.622c-1.639-2.3266-3.543-3.057-6.239-3.004-2.697.053-5.964 1.697-8.132 6.5615-1.035 2.322-1.333 4.522-1.544 6.19v-.0007s-2.422.4782-3.691-.579c-1.269-1.0578-1.962 0-1.962 0s-2.1965 2.736-.029 3.582c2.168.846 5.532 1.202 5.532 1.202h-.002c.311 1.4804 1.215 4.0346 3.855 6.0407 3.9655 3.014 11.579-.2575 11.579-.2575l3.1193-1.7414s.1054 2.8675 2.379 3.2854c2.2737.418 3.2254-.004 7.191-9.6275 2.3265-4.917 2.485-4.652 2.485-4.652l.2643-.052s-1.798 9.4116-1.1104 11.9496c.687 2.538 3.701 2.274 3.701 2.274s1.639.277 2.961-4.376c1.322-4.653 3.86-9.822 3.86-9.822h.317s-1.11 9.664.582 12.7306c1.692 3.067 6.0806 1.051 6.0806 1.051s3.067-1.536 3.543-2.012c0 0 3.641 3.102 8.774 2.5413 11.477-2.2585 15.559-5.3065 15.559-5.3065s1.972 4.996 8.079 5.459c6.9794.529 10.7864-3.86 10.7864-3.86s-.053 2.855 2.379 3.86c2.432 1.0042 4.071-4.6807 4.071-4.6807l4.072-11.2626h.37s.2113 7.337 4.23 8.5c4.0183 1.163 9.253-2.704 9.253-2.704s1.269-.6802 1.0573-2.795"/><g stroke="#848484" stroke-width=".5"><path fill="#002A41" d="M39.054 206.15v48.512l36.272 20.583v-13.992l-24.265-13.77v-21.628l24.265 13.77v-12.892z"/><path fill="#0071B5" d="M111.598 206.15v48.512l-36.272 20.583v-13.992l24.266-13.77v-21.628l-24.266 13.77v-12.892zm-72.544 89.7v-48.512l36.272-20.583v13.991l-24.265 13.771v20.528l24.265-13.77v13.992z"/><path fill="#002A41" d="M111.598 295.85v-48.512l-36.272-20.583v13.991l24.266 13.771v20.528l-24.266-13.77v13.992z"/></g></g></svg>