<svg xmlns="http://www.w3.org/2000/svg" width="200" height="96" viewBox="0 0 200 96">
  <g fill="none" transform="translate(2 21)">
    <path fill="#4A4A4A" d="M56.9424813,43.4428235 L60.1306506,43.4428235 L63.8869947,33.6077647 L78.0808271,33.6077647 L81.8807148,43.4428235 L85.0678307,43.4428235 L72.8397843,11.8037647 L69.518877,11.8037647 L56.9424813,43.4428235 L56.9424813,43.4428235 Z M71.0474706,14.8185882 L77.0751087,31.0358824 L64.8031676,31.0358824 L71.0474706,14.8185882 Z M86.1381622,43.4428235 L88.8894902,43.4428235 L88.8894902,11.8037647 L86.1381622,11.8037647 L86.1381622,43.4428235 Z M100.670863,20.5789412 L96.2174688,20.5789412 L96.2174688,18.5851765 C96.2174688,17.9643529 96.2308128,17.3883529 96.2606613,16.8575294 C96.2894563,16.3235294 96.3986667,15.8597647 96.5879412,15.4602353 C96.7768645,15.0621176 97.0753494,14.7444706 97.4823422,14.5072941 C97.8896863,14.2715294 98.4726096,14.1529412 99.2307611,14.1529412 C99.5506667,14.1529412 99.8712745,14.1751765 100.191882,14.2189412 C100.510383,14.2634118 100.860137,14.3149412 101.237984,14.3745882 L101.237984,11.9823529 C100.846695,11.9272843 100.453945,11.883267 100.060198,11.8503529 C99.6823473,11.8188527 99.3033475,11.8033096 98.9241996,11.8037647 C97.8176988,11.8037647 96.9078467,11.9675294 96.1939412,12.2911765 C95.480738,12.6158824 94.9192353,13.074 94.5125936,13.6641176 C94.1048984,14.2570588 93.8302923,14.9657647 93.6824545,15.7909412 C93.5377772,16.6189412 93.4640339,17.5203529 93.4640339,18.4944706 L93.4640339,20.5782353 L89.621656,20.5782353 L89.621656,22.9249412 L93.4640339,22.9249412 L93.4640339,43.4421176 L96.2174688,43.4421176 L96.2174688,22.9256471 L100.670863,22.9256471 L100.670863,20.5789412 Z M101.530148,43.4428235 L104.282178,43.4428235 L104.282178,31.4435294 C104.282178,30.2812941 104.484797,29.1885882 104.893897,28.1710588 C105.300538,27.1528235 105.876087,26.2810588 106.617383,25.5522353 C107.36184,24.8251765 108.242545,24.2647059 109.260203,23.8715294 C110.278212,23.4772941 111.414913,23.3124706 112.66574,23.3685882 L112.66574,20.5792941 C110.628317,20.4903529 108.873929,20.8951765 107.403627,21.7969412 C105.934029,22.7001176 104.850353,24.0790588 104.150494,25.9408235 L104.064109,25.9408235 L104.064109,20.5789412 L101.529446,20.5789412 L101.530148,43.4428235 L101.530148,43.4428235 Z M131.32034,32.7645882 C131.380347,31.2599594 131.233345,29.754209 130.883499,28.29 C130.536554,26.8178824 129.961005,25.5162353 129.158959,24.3801176 C128.358317,23.2471765 127.319239,22.3288235 126.036105,21.6278824 C124.755781,20.928 123.212439,20.5785882 121.407132,20.5785882 C119.601825,20.5785882 118.058483,20.9068235 116.777456,21.5622353 C115.49643,22.2176471 114.446816,23.0834118 113.63248,24.1591765 C112.819547,25.2324706 112.213799,26.4543529 111.819799,27.8223529 C111.428578,29.1837128 111.230212,30.5936977 111.230554,32.0107059 C111.230554,33.5456471 111.427906,35.0036471 111.819799,36.3857647 C112.213799,37.7668235 112.819547,38.982 113.63248,40.0298824 C114.446816,41.0774118 115.496078,41.9057647 116.777456,42.5209412 C118.057781,43.1371765 119.601825,43.4414118 121.407132,43.4414118 C124.259945,43.4414118 126.46487,42.726 128.023312,41.2927059 C129.581754,39.8601176 130.651383,37.8437647 131.234307,35.2429412 L128.482627,35.2429412 C128.046137,36.9871765 127.260244,38.3975294 126.124246,39.4761176 C124.988599,40.5529412 123.416111,41.0932941 121.407132,41.0932941 C120.097661,41.0932941 118.96974,40.8342353 118.022314,40.3157647 C117.076292,39.7951765 116.311118,39.1376471 115.728897,38.3445882 C115.147729,37.5518824 114.710185,36.6603529 114.420831,35.6756471 C114.127262,34.6905882 113.982936,33.72 113.982936,32.7628235 L131.319989,32.7628235 L131.319989,32.7645882 L131.32034,32.7645882 Z M113.981882,30.4143529 C114.099414,29.4582752 114.341933,28.521961 114.703162,27.6296471 C115.068016,26.718 115.553317,25.9164706 116.165036,25.2261176 C116.777105,24.5350588 117.518752,23.9774118 118.395244,23.5591765 C119.266469,23.1381176 120.27008,22.9252941 121.40643,22.9252941 C122.511877,22.9252941 123.502144,23.1384706 124.376529,23.5591765 C125.250563,23.9781176 125.992913,24.5354118 126.603929,25.2261176 C127.214242,25.9164706 127.687253,26.7134118 128.022258,27.6045882 C128.357745,28.5040197 128.542618,29.4531112 128.569364,30.4132941 L113.981882,30.4143529 L113.981882,30.4143529 Z M149.560574,27.2696471 C149.502282,26.0294118 149.254364,24.9511765 148.818576,24.0349412 C148.381734,23.1197647 147.792139,22.3514118 147.051897,21.7312941 C146.307791,21.1101176 145.448506,20.6523529 144.472988,20.3576471 C143.497469,20.0611765 142.440481,19.9129412 141.306239,19.9129412 C140.317025,19.9129412 139.320086,20.0315294 138.314016,20.2669412 C137.310756,20.5048235 136.401255,20.8750588 135.586567,21.3772941 C134.768016,21.8781176 134.105731,22.5444706 133.597604,23.3689412 C133.088775,24.198 132.832078,25.1890588 132.832078,26.34 C132.832078,27.3158824 132.991504,28.1347059 133.312463,28.8007059 C133.625501,29.4546941 134.080541,30.0297584 134.644057,30.4835294 C135.211529,30.9427059 135.875219,31.326 136.63302,31.6372941 C137.389064,31.9464706 138.218852,32.2189412 139.121681,32.4557647 L142.660307,33.2534118 C143.272414,33.4014819 143.877102,33.57898 144.472285,33.7852941 C145.069606,33.9921176 145.600909,34.2494118 146.067248,34.5607059 C146.52336,34.8605431 146.904336,35.262296 147.180421,35.7345882 C147.457134,36.2064706 147.596544,36.768 147.596544,37.4195294 C147.596544,38.2157647 147.39849,38.8891765 147.007299,39.4351765 C146.612246,39.9829412 146.109036,40.4318824 145.500478,40.7876471 C144.87496,41.1454809 144.195748,41.3987816 143.489392,41.5376471 C142.763196,41.688 142.077383,41.7610588 141.436168,41.7610588 C139.601012,41.7610588 138.067152,41.2814118 136.828966,40.3210588 C135.591483,39.3603529 134.914098,37.9348235 134.795758,36.0451765 L132.044078,36.0451765 C132.278301,38.8528235 133.218353,40.8981176 134.862478,42.1828235 C136.508709,43.4678824 138.656045,44.1091765 141.305185,44.1091765 C142.354096,44.1091765 143.415649,43.9842353 144.493355,43.7343529 C145.569656,43.482 146.539205,43.0849412 147.397437,42.5361176 C148.252197,41.9933653 148.976101,41.2662687 149.516679,40.4075294 C150.068349,39.5368235 150.345765,38.4822353 150.345765,37.2412941 C150.345765,36.234 150.156841,35.3643529 149.778292,34.6242353 C149.400094,33.888 148.912335,33.2675294 148.314663,32.7649412 C147.718045,32.2630588 147.034339,31.8557647 146.26179,31.5455294 C145.510587,31.2411267 144.726672,31.0256759 143.925882,30.9035294 L140.256626,30.0603529 C139.740693,29.9279412 139.230687,29.773209 138.728032,29.5965882 C138.191512,29.4138513 137.678409,29.1679036 137.199439,28.8638824 C136.745751,28.5829187 136.35171,28.2147036 136.039913,27.7803529 C135.734756,27.3529412 135.585162,26.8281176 135.585162,26.2072941 C135.585162,25.4710588 135.74213,24.8470588 136.062387,24.3469412 C136.380537,23.8436471 136.805439,23.4377647 137.330772,23.1275294 C137.852242,22.8183529 138.428143,22.5984706 139.053907,22.4632941 C139.664004,22.3318571 140.286178,22.2653726 140.910132,22.2649412 C141.695674,22.2649412 142.437672,22.3584706 143.138585,22.5525882 C143.83423,22.7435294 144.455781,23.0452941 144.993053,23.4607059 C145.53138,23.8718824 145.9619,24.3967059 146.282157,25.0337647 C146.603116,25.6676471 146.775184,26.4130588 146.806086,27.2710588 L149.55952,27.2710588 L149.55952,27.2696471 L149.560574,27.2696471 Z M170.324234,28.4209412 C170.003977,25.7918824 169.006335,23.8267059 167.332011,22.5282353 C165.655579,21.228 163.610783,20.5785882 161.195162,20.5785882 C159.475889,20.5785882 157.955373,20.8838824 156.630451,21.4987059 C155.305881,22.1128235 154.19025,22.9372941 153.287772,23.9689412 C152.385996,25.0041176 151.702993,26.2178824 151.236303,27.6134118 C150.770667,29.0092941 150.537146,30.4747059 150.537146,32.0103529 C150.537146,33.5735294 150.770667,35.0456471 151.236303,36.4281176 C151.702993,37.8102353 152.385294,39.0172941 153.287772,40.0517647 C154.189898,41.0858824 155.304476,41.9068235 156.630451,42.5216471 C157.955373,43.1378824 159.476241,43.4421176 161.195162,43.4421176 C163.727367,43.4421176 165.815357,42.6585882 167.461237,41.0943529 C169.107469,39.5287059 170.118806,37.3584706 170.497355,34.5811765 L167.745676,34.5811765 C167.659642,35.5270588 167.424365,36.3974118 167.046519,37.194 C166.66797,37.9927059 166.187234,38.6784706 165.607119,39.2562353 C165.027671,39.8300392 164.345425,40.2884564 163.596385,40.6072941 C162.841394,40.9330588 162.037943,41.0947059 161.19446,41.0947059 C159.883234,41.0947059 158.732487,40.8335294 157.741868,40.3118824 C156.751601,39.7895294 155.930943,39.0998824 155.276032,38.2461176 C154.621824,37.3930588 154.12669,36.4210588 153.790982,35.3361176 C153.457816,34.2592579 153.288055,33.1380745 153.287421,32.0103529 C153.287421,30.8809412 153.455977,29.7744706 153.790982,28.686 C154.127392,27.6010588 154.621824,26.6290588 155.276032,25.7763529 C155.930943,24.9225882 156.751601,24.2343529 157.741868,23.7109412 C158.732135,23.1868235 159.883234,22.9252941 161.19446,22.9252941 C162.998713,22.9252941 164.41915,23.4130588 165.451205,24.3875294 C166.487474,25.3644706 167.191196,26.7081176 167.570447,28.422 L170.323531,28.422 L170.324234,28.4209412 L170.324234,28.4209412 Z M182.141775,20.5789412 C180.42461,20.5789412 178.90339,20.8842353 177.577766,21.4994118 C176.253547,22.1135294 175.13897,22.938 174.238599,23.9696471 C173.333663,25.0044706 172.651011,26.2182353 172.184672,27.6141176 C171.719387,29.0092941 171.485515,30.4754118 171.485515,32.0103529 C171.485515,33.5742353 171.719387,35.0456471 172.184672,36.4288235 C172.65066,37.8109412 173.333663,39.018 174.238599,40.0517647 C175.138267,41.0862353 176.253196,41.9075294 177.577766,42.5223529 C178.90339,43.1385882 180.42461,43.4428235 182.141775,43.4428235 C183.861048,43.4428235 185.382619,43.1378824 186.706487,42.5223529 C188.031408,41.9075294 189.145283,41.0862353 190.048815,40.0517647 C190.949888,39.018 191.635701,37.8109412 192.100986,36.4288235 C192.56592,35.0456471 192.799791,33.5742353 192.799791,32.0103529 C192.799791,30.4747059 192.56592,29.0092941 192.100986,27.6141176 C191.635701,26.2178824 190.95059,25.0041176 190.048815,23.9696471 C189.145635,22.938 188.032462,22.1135294 186.706487,21.4994118 C185.382267,20.8838824 183.861048,20.5789412 182.141775,20.5789412 Z M182.141775,22.9256471 C183.451948,22.9256471 184.603749,23.1868235 185.59226,23.7112941 C186.582176,24.2343529 187.40459,24.9229412 188.060906,25.7767059 C188.714763,26.6297647 189.21095,27.6014118 189.545955,28.6863529 C189.878742,29.7628162 190.048496,30.8834764 190.049517,32.0107059 C190.049517,33.1387059 189.879907,34.2476471 189.545955,35.3364706 C189.21095,36.4214118 188.715465,37.3934118 188.060906,38.2464706 C187.40459,39.1002353 186.582176,39.7891765 185.59226,40.3122353 C184.604451,40.8331765 183.451948,41.0950588 182.141775,41.0950588 C180.832305,41.0950588 179.681207,40.8338824 178.693046,40.3122353 C177.702779,39.7898824 176.880365,39.1002353 176.222645,38.2464706 C175.570895,37.3934118 175.074005,36.4214118 174.739702,35.3364706 C174.407154,34.259532 174.238218,33.1383185 174.238599,32.0107059 C174.238599,30.8812941 174.405048,29.7748235 174.739702,28.6863529 C175.073654,27.6014118 175.570544,26.6294118 176.222645,25.7767059 C176.880365,24.9229412 177.702779,24.2347059 178.693046,23.7112941 C179.681207,23.1868235 180.831602,22.9256471 182.141775,22.9256471 L182.141775,22.9256471 Z M196.650948,22.1064706 C196.650948,23.3470588 195.715462,24.3123529 194.499399,24.3123529 C193.283337,24.3123529 192.346446,23.3470588 192.346446,22.1064706 C192.346446,20.8687059 193.283337,19.9005882 194.499399,19.9005882 C195.715462,19.9005882 196.650948,20.8690588 196.650948,22.1064706 L196.650948,22.1064706 Z M192.683207,22.1064706 C192.683207,23.1617647 193.455756,23.9989412 194.499399,23.9989412 C195.541638,23.9989412 196.317699,23.1621176 196.317699,22.1064706 C196.317699,21.0525882 195.541638,20.2161176 194.499399,20.2161176 C193.455756,20.2161176 192.683207,21.0525882 192.683207,22.1064706 Z M194.026037,23.3823529 L193.71772,23.3823529 L193.71772,20.832 L194.670765,20.832 C195.233321,20.832 195.482643,21.0804706 195.482643,21.5375294 C195.482643,21.9903529 195.193289,22.1911765 194.858986,22.2494118 L195.597824,23.3827059 L195.240344,23.3827059 L194.538378,22.2494118 L194.025686,22.2494118 L194.025686,23.3823529 L194.026037,23.3823529 Z M194.428816,21.984 C194.806312,21.984 195.176082,21.9716471 195.176082,21.5378824 C195.176082,21.1824706 194.885674,21.0988235 194.586135,21.0988235 L194.025335,21.0988235 L194.025335,21.984 L194.428816,21.984 L194.428816,21.984 Z"/>
    <path fill="#FFF" d="M26.3253102,26.8581176 L18.9418485,19.2829412 L18.6739144,19.0069412 C14.4417504,14.6551765 7.54569697,14.6551765 3.33390018,18.99 C-0.911607843,23.3212941 -0.911607843,30.3656471 3.33390018,34.7025882 C7.54534581,39.0508235 14.423139,39.0508235 18.6531961,34.7025882 L26.3253102,26.8581176 L26.3253102,26.8581176 Z"/>
    <path fill="#FFF" d="M26.3253102,26.8478824 L26.3253102,37.5476471 L26.34041,37.9404706 C26.34041,44.0752941 21.4782674,49.0785882 15.4853939,49.0785882 C9.49181818,49.0785882 4.63108021,44.1070588 4.63108021,37.9715294 C4.63108021,31.8303529 9.51007843,26.8471765 15.4853939,26.8471765 L26.3253102,26.8478824 Z"/>
    <path fill="#FFF" d="M26.3253102,26.8478824 L26.3253102,37.5476471 L26.34041,37.9404706 C26.34041,44.0752941 21.4782674,49.0785882 15.4853939,49.0785882 C9.49181818,49.0785882 4.63108021,44.1070588 4.63108021,37.9715294 C4.63108021,31.8303529 9.51007843,26.8471765 15.4853939,26.8471765 L26.3253102,26.8478824 Z"/>
    <path fill="#FFF" d="M26.3253102,26.8478824 L26.3253102,37.5476471 L26.34041,37.9404706 C26.34041,44.0752941 21.4782674,49.0785882 15.4853939,49.0785882 C9.49181818,49.0785882 4.63108021,44.1070588 4.63108021,37.9715294 C4.63108021,37.2875294 4.70271658,36.6257647 4.81403387,35.988 C9.04373975,39.006 14.8933405,38.5785882 18.6538984,34.7050588 L26.3256613,26.8577647 L26.3256613,26.8478824 L26.3253102,26.8478824 Z"/>
    <path fill="#4A4A4A" d="M15.4853939,28.2501176 C10.2633137,28.2501176 6.01815686,32.6022353 6.01815686,37.9722353 C6.01815686,43.3221176 10.2633137,47.6643529 15.4853939,47.6643529 C20.7250321,47.6643529 24.9550891,43.3221176 24.9550891,37.9722353 L24.9550891,28.2501176 L15.4853939,28.2501176 Z"/>
    <path fill="#FFF" d="M26.3253102,26.8478824 L33.7028021,34.4096471 L34.0065544,34.6852941 C38.2211604,39.0310588 38.2408253,46.0867059 34.0065544,50.4201176 C29.760344,54.7574118 22.9015134,54.7574118 18.6538984,50.4201176 C14.4234902,46.0867059 14.4234902,39.0391765 18.6538984,34.6948235 L26.3253102,26.8478824 Z"/>
    <path fill="#4A4A4A" d="M19.6434635,35.6929412 C15.9376863,39.4821176 15.9376863,45.6402353 19.6434635,49.4184706 C23.3320339,53.2094118 29.3305258,53.2094118 33.036303,49.4184706 C36.7259269,45.6395294 36.7259269,39.4828235 33.036303,35.6929412 L32.7279857,35.4084706 L26.3253102,28.8374118 L19.6438146,35.6802353 L19.6434635,35.6929412 L19.6434635,35.6929412 Z"/>
    <path fill="#FFF" d="M26.3253102,26.8478824 L36.779303,26.8478824 L37.1596078,26.8288235 C43.1545882,26.8288235 48.0160285,31.8088235 48.0160285,37.9514118 C48.0160285,44.0968235 43.1714439,49.0570588 37.1778681,49.0570588 C31.1846435,49.0570588 26.3263636,44.088 26.3263636,37.9514118 L26.3263636,26.8478824 L26.3253102,26.8478824 L26.3253102,26.8478824 Z"/>
    <path fill="#4A4A4A" d="M27.7085241,37.9514118 C27.7085241,43.314 31.9368253,47.6572941 37.1771658,47.6572941 C42.3939786,47.6572941 46.6236845,43.314 46.6236845,37.9514118 C46.6236845,32.5821176 42.3939786,28.2501176 37.1771658,28.2501176 L27.7085241,28.2501176 L27.7085241,37.9514118 Z"/>
    <path fill="#FFF" d="M26.3253102,26.8478824 L33.702451,19.2751765 L33.987943,18.99 C38.2204581,14.6551765 45.0940374,14.6371765 49.3254991,18.9698824 C53.5576631,23.3163529 53.5576631,30.3501176 49.3254991,34.6948235 C47.312301,36.7777949 44.5460153,37.9531346 41.656721,37.9531346 C38.7674268,37.9531346 36.0011411,36.7777949 33.987943,34.6948235 L26.3253102,26.8478824 Z"/>
    <path fill="#4A4A4A" d="M34.977508,33.6903529 C38.6509786,37.4918824 44.6456078,37.4918824 48.3527897,33.6903529 C52.0617273,29.9071765 52.0617273,23.7674118 48.3527897,19.9747059 C44.6456078,16.1858824 38.6509786,16.1858824 34.977508,19.9747059 L34.6737558,20.2711765 L28.2823173,26.8478824 L34.9444991,33.6822353 L34.977508,33.6903529 Z"/>
    <path fill="#FFF" d="M26.3253102,26.8478824 L26.3253102,15.7408235 C26.3253102,9.61094118 31.1642763,4.61894118 37.1768146,4.61894118 C43.1538859,4.61894118 47.9960125,9.57847059 47.9960125,15.7221176 C47.9960125,21.8654118 43.1549394,26.8471765 37.1768146,26.8471765 L26.3253102,26.8471765 L26.3253102,26.8478824 Z"/>
    <path fill="#4A4A4A" d="M37.1768146,25.4357647 C42.3936275,25.4357647 46.6236845,21.0907059 46.6236845,15.7238824 C46.6236845,10.3771765 42.3939786,6.02223529 37.1768146,6.02223529 C31.9368253,6.02223529 27.688508,10.3771765 27.688508,15.7238824 L27.7081729,16.1396471 L27.7081729,25.4354118 L37.1220339,25.4354118 L37.1768146,25.4357647 L37.1768146,25.4357647 Z"/>
    <path fill="#FFF" d="M26.3253102,26.8478824 L18.9418485,19.2755294 L18.6538984,19.0072941 C14.4234902,14.6555294 14.4234902,7.60623529 18.6538984,3.27247059 C22.8660463,-1.07011765 29.7441907,-1.07011765 33.9886453,3.27247059 C38.2211604,7.60694118 38.2211604,14.6555294 33.9886453,18.9903529 L26.3253102,26.8478824 Z"/>
    <path fill="#4A4A4A" d="M33.0166381,18.0857647 C36.7048574,14.2951765 36.7048574,8.14305882 33.0166381,4.35811765 C29.3126168,0.571058824 23.3320339,0.571058824 19.6266078,4.35811765 C15.9176702,8.14341176 15.9176702,14.2948235 19.6266078,18.0857647 L19.8966488,18.3765882 L26.3256613,24.9363529 L32.9976756,18.1027059 L33.0166381,18.0857647 Z"/>
    <path fill="#FFF" d="M26.3253102,26.9382353 L15.8800963,26.9382353 L15.4853939,26.9491765 C9.50972727,26.9491765 4.63108021,21.9667059 4.63108021,15.8272941 C4.63108021,9.69211765 9.49181818,4.71141176 15.4667825,4.71141176 C21.4610606,4.71141176 26.324959,9.69211765 26.324959,15.8311765 L26.324959,26.9382353 L26.3253102,26.9382353 Z"/>
    <path fill="#4A4A4A" d="M24.9533333,15.8311765 C24.9533333,10.4685882 20.7236275,6.12917647 15.4667825,6.12917647 C10.2482139,6.12917647 6.00165241,10.4685882 6.00165241,15.8237647 C6.00165241,21.1824706 10.2482139,25.5370588 15.4667825,25.5370588 L15.8800963,25.5261176 L24.9533333,25.5261176 L24.9533333,15.8311765 Z"/>
    <path fill="#FFF" d="M26.3253102,26.9382353 L0.14783779,26.9491765 C0.14783779,24.1072941 1.19113012,21.2590588 3.33425134,19.0810588 C7.54534581,14.7465882 14.4234902,14.7465882 18.6535472,19.0810588 L26.3253102,26.9382353 L26.3253102,26.9382353 Z"/>
    <path fill="#4A4A4A" d="M17.6815401,20.0781176 L24.3777843,26.9382353 L15.4853939,26.9382353 C10.6790856,26.9382353 6.59230125,30.1489412 5.172918,34.6101176 C4.88356328,34.3528235 4.57665062,34.0916471 4.30906774,33.7987059 C0.600130125,30.0088235 0.600130125,23.8778824 4.30906774,20.0781176 C7.97902674,16.2931765 13.9929697,16.2931765 17.6815401,20.0781176"/>
    <path fill="#727272" d="M17.6983957 20.0865882L22.9977308 25.5204706 15.4601105 25.5434118C11.1218966 25.5434118 7.46352585 22.5564706 6.35351337 18.4778824 9.95183601 16.4110588 14.6647362 16.9076471 17.6808378 20.0781176L17.6983957 20.0865882 17.6983957 20.0865882zM24.9568449 15.8509412L24.9491194 23.5369412 19.629066 18.0843529C16.5652068 14.9378824 16.0258271 10.1781176 18.04218 6.48882353 22.019754 7.63023529 24.9561426 11.3774118 24.9561426 15.8297647L24.9561426 15.8505882 24.9568449 15.8509412zM27.6674385 23.5538824L27.6674385 15.8435294C27.6674385 11.4007059 30.5996132 7.64752941 34.5817522 6.49658824 36.5959982 10.1957647 36.2167469 14.8327059 33.0556168 18.0388235L27.6674385 23.5538824zM29.6444617 25.44L34.9599501 19.9785882C37.9253134 16.9134974 42.5773746 16.2509758 46.2732282 18.3674118 45.1358253 22.4435294 41.6667291 25.3722353 37.3969911 25.4435294L29.6444617 25.44zM29.6441105 28.2441176L37.1676845 28.2441176C41.5058984 28.2441176 45.1611087 31.2137647 46.2781444 35.2990588 42.6576988 37.3732941 38.0104652 36.8301176 34.9350178 33.6875294L29.6441105 28.2441176zM27.7078217 37.9005882L27.7078217 30.2276471 33.036303 35.6717647C36.1005134 38.8242353 36.6184724 43.6058824 34.6045775 47.2955294 30.6263012 46.1484706 27.7078217 42.3871765 27.7078217 37.938L27.7078217 37.9005882 27.7078217 37.9005882zM19.6561052 35.6745882L24.9519287 30.2456471 24.9638681 37.9588235C24.9638681 42.4051765 22.0499537 46.1417647 18.070975 47.2937647 16.0560267 43.5974118 16.5957576 38.8270588 19.6561052 35.6894118L19.6561052 35.6745882 19.6561052 35.6745882zM15.5391212 28.2465882L23.0279305 28.2465882 17.7173583 33.6984706C14.6601711 36.8382353 9.973959 37.3807059 6.37774332 35.3156471 7.50917647 31.2271765 11.1678984 28.2469412 15.5061123 28.2469412L15.5391212 28.2465882 15.5391212 28.2465882z"/>
  </g>
</svg>
